<svg width="248" height="39" viewBox="0 0 248 39" fill="none" xmlns="http://www.w3.org/2000/svg">
<path fill-rule="evenodd" clip-rule="evenodd" d="M29.9377 30V8.18182H33.29V30H29.9377ZM31.6423 4.54545C30.9888 4.54545 30.4254 4.32292 29.9519 3.87784C29.4879 3.43277 29.2559 2.89773 29.2559 2.27273C29.2559 1.64773 29.4879 1.11269 29.9519 0.667612C30.4254 0.222537 30.9888 0 31.6423 0C32.2957 0 32.8544 0.222537 33.3184 0.667612C33.7919 1.11269 34.0286 1.64773 34.0286 2.27273C34.0286 2.89773 33.7919 3.43277 33.3184 3.87784C32.8544 4.32292 32.2957 4.54545 31.6423 4.54545ZM111.188 30V8.18182H114.54V30H111.188ZM112.892 4.54545C112.239 4.54545 111.675 4.32292 111.202 3.87784C110.738 3.43277 110.506 2.89773 110.506 2.27273C110.506 1.64773 110.738 1.11269 111.202 0.667612C111.675 0.222537 112.239 0 112.892 0C113.546 0 114.104 0.222537 114.568 0.667612C115.042 1.11269 115.279 1.64773 115.279 2.27273C115.279 2.89773 115.042 3.43277 114.568 3.87784C114.104 4.32292 113.546 4.54545 112.892 4.54545ZM153.283 30V0.909058H156.806V13.8636H172.317V0.909058H175.84V30H172.317V16.9886H156.806V30H153.283ZM186.117 29.0483C187.603 29.9858 189.332 30.4545 191.301 30.4545C193.271 30.4545 194.995 29.9858 196.472 29.0483C197.959 28.1108 199.114 26.7992 199.938 25.1136C200.771 23.428 201.188 21.4583 201.188 19.2045C201.188 16.9318 200.771 14.9479 199.938 13.2528C199.114 11.5577 197.959 10.2415 196.472 9.30396C194.995 8.36646 193.271 7.89771 191.301 7.89771C189.332 7.89771 187.603 8.36646 186.117 9.30396C184.639 10.2415 183.484 11.5577 182.651 13.2528C181.827 14.9479 181.415 16.9318 181.415 19.2045C181.415 21.4583 181.827 23.428 182.651 25.1136C183.484 26.7992 184.639 28.1108 186.117 29.0483ZM194.995 26.2926C194.029 27.0596 192.798 27.4432 191.301 27.4432C189.805 27.4432 188.574 27.0596 187.608 26.2926C186.642 25.5255 185.927 24.517 185.463 23.267C184.999 22.017 184.767 20.6629 184.767 19.2045C184.767 17.7462 184.999 16.3873 185.463 15.1278C185.927 13.8683 186.642 12.8504 187.608 12.0738C188.574 11.2973 189.805 10.9091 191.301 10.9091C192.798 10.9091 194.029 11.2973 194.995 12.0738C195.96 12.8504 196.675 13.8683 197.139 15.1278C197.603 16.3873 197.835 17.7462 197.835 19.2045C197.835 20.6629 197.603 22.017 197.139 23.267C196.675 24.517 195.96 25.5255 194.995 26.2926ZM209.657 16.875V30H206.305V8.1818H209.544V11.5909H209.828C210.339 10.4829 211.116 9.59278 212.157 8.92043C213.199 8.23862 214.544 7.89771 216.191 7.89771C217.669 7.89771 218.961 8.20074 220.069 8.8068C221.177 9.40339 222.039 10.3125 222.654 11.5341C223.27 12.7462 223.578 14.2803 223.578 16.1363V30H220.225V16.3636C220.225 14.6496 219.78 13.3144 218.89 12.3579C218 11.392 216.778 10.9091 215.225 10.9091C214.155 10.9091 213.199 11.1411 212.356 11.6051C211.523 12.0691 210.865 12.7462 210.382 13.6363C209.899 14.5265 209.657 15.606 209.657 16.875ZM238.51 38.6363C236.891 38.6363 235.499 38.428 234.334 38.0113C233.169 37.6041 232.199 37.0644 231.422 36.392C230.655 35.7291 230.044 35.0189 229.59 34.2613L232.26 32.3863C232.563 32.7841 232.947 33.2386 233.411 33.75C233.875 34.2708 234.509 34.7206 235.314 35.0994C236.129 35.4877 237.194 35.6818 238.51 35.6818C240.272 35.6818 241.725 35.2557 242.871 34.4034C244.017 33.5511 244.59 32.2159 244.59 30.3977V25.9659H244.306C244.059 26.3636 243.709 26.856 243.255 27.4432C242.809 28.0208 242.165 28.5369 241.323 28.9915C240.489 29.4365 239.362 29.6591 237.942 29.6591C236.181 29.6591 234.599 29.2424 233.198 28.4091C231.806 27.5757 230.702 26.3636 229.888 24.7727C229.083 23.1818 228.681 21.25 228.681 18.9772C228.681 16.7424 229.074 14.7964 229.86 13.1392C230.646 11.4725 231.739 10.1846 233.141 9.27555C234.542 8.35699 236.162 7.89771 237.999 7.89771C239.419 7.89771 240.546 8.13445 241.38 8.60793C242.222 9.07195 242.866 9.60225 243.311 10.1988C243.766 10.786 244.116 11.2689 244.362 11.6477H244.703V8.1818H247.942V30.625C247.942 32.5 247.516 34.0246 246.664 35.1988C245.821 36.3826 244.684 37.249 243.255 37.7983C241.834 38.357 240.253 38.6363 238.51 38.6363ZM238.397 26.6477C239.741 26.6477 240.878 26.3399 241.806 25.7244C242.734 25.1089 243.439 24.2235 243.922 23.0682C244.405 21.9129 244.647 20.5303 244.647 18.9204C244.647 17.3485 244.41 15.9612 243.936 14.7585C243.463 13.5558 242.762 12.6136 241.834 11.9318C240.906 11.25 239.76 10.9091 238.397 10.9091C236.976 10.9091 235.792 11.2689 234.845 11.9886C233.908 12.7083 233.202 13.6742 232.729 14.8863C232.265 16.0985 232.033 17.4432 232.033 18.9204C232.033 20.4356 232.27 21.7755 232.743 22.9403C233.226 24.0956 233.936 25.0047 234.874 25.6676C235.821 26.321 236.995 26.6477 238.397 26.6477ZM133.123 13.9204L136.134 13.0682C135.614 11.5151 134.733 10.2651 133.492 9.31816C132.261 8.37119 130.566 7.89771 128.407 7.89771C126.873 7.89771 125.5 8.16759 124.288 8.70736C123.085 9.24714 122.134 9.99051 121.433 10.9375C120.741 11.8844 120.396 12.9735 120.396 14.2045C120.396 15.7102 120.86 16.9649 121.788 17.9687C122.725 18.963 124.193 19.6969 126.191 20.1704L129.828 21.0227C130.926 21.2784 131.741 21.6666 132.271 22.1875C132.801 22.6988 133.066 23.3333 133.066 24.0909C133.066 25.0284 132.602 25.8333 131.674 26.5057C130.756 27.1685 129.515 27.5 127.953 27.5C126.58 27.5 125.467 27.2064 124.615 26.6193C123.772 26.0322 123.199 25.1515 122.896 23.9772L119.714 24.7727C120.102 26.6288 121.026 28.0397 122.484 29.0057C123.942 29.9716 125.784 30.4545 128.009 30.4545C129.705 30.4545 131.191 30.1704 132.47 29.6022C133.748 29.0341 134.742 28.2576 135.453 27.2727C136.172 26.2879 136.532 25.1704 136.532 23.9204C136.532 22.3958 136.054 21.1505 135.098 20.1846C134.141 19.2093 132.688 18.4848 130.737 18.0113L127.498 17.2159C126.21 16.8939 125.263 16.4915 124.657 16.0085C124.051 15.5255 123.748 14.8674 123.748 14.0341C123.748 13.0966 124.188 12.3248 125.069 11.7187C125.959 11.1032 127.072 10.7954 128.407 10.7954C129.383 10.7954 130.183 10.9517 130.808 11.2642C131.433 11.5767 131.925 11.9744 132.285 12.4574C132.654 12.9308 132.934 13.4185 133.123 13.9204ZM90.9072 30V16.875C90.9072 15.606 91.1534 14.5265 91.6458 13.6363C92.1477 12.7462 92.8295 12.0691 93.6913 11.6051C94.5625 11.1411 95.5473 10.9091 96.6458 10.9091C98.2272 10.9091 99.463 11.3873 100.353 12.3437C101.253 13.2907 101.703 14.6306 101.703 16.3636V30H105.055V16.1363C105.055 14.2613 104.742 12.7178 104.117 11.5056C103.502 10.2841 102.635 9.3797 101.518 8.79258C100.401 8.19599 99.0985 7.8977 97.6117 7.8977C95.8977 7.8977 94.5246 8.23387 93.4924 8.90622C92.4697 9.5691 91.7026 10.464 91.1913 11.5909H90.9072V0.909058H87.5549V30H90.9072ZM60.7545 4.03406V0.909058H82.5727V4.03406H73.4249V30H69.9022V4.03406H60.7545ZM44.2026 27.5568L44.4299 26.0227H40.7936L40.6231 27.6136C40.4905 28.892 40.3201 30.142 40.1117 31.3636C39.9129 32.5947 39.714 33.7074 39.5151 34.7017C39.3163 35.696 39.1553 36.4962 39.0322 37.1022H41.589C41.8163 36.4583 42.1051 35.5918 42.4555 34.5028C42.8059 33.4138 43.142 32.2538 43.464 31.0227C43.7954 29.7916 44.0417 28.6363 44.2026 27.5568ZM0.782867 0.909088V30H4.30559V16.9886H19.817V30H23.3397V0.909088H19.817V13.8636H4.30559V0.909088H0.782867Z" fill="#D9CECE"/>
</svg>
