<svg width="265" height="38" viewBox="0 0 265 38" fill="none" xmlns="http://www.w3.org/2000/svg">
<path d="M0.885156 28V0.8H4.08516V12.92H17.0452V0.8H20.2452V28H17.0452V15.88H4.08516V28H0.885156ZM27.5277 3.64C27.2077 3.26667 27.0477 2.8 27.0477 2.24C27.0477 1.68 27.2077 1.22667 27.5277 0.879999C27.8477 0.506665 28.3143 0.319999 28.9277 0.319999C29.541 0.319999 30.021 0.506665 30.3677 0.879999C30.7143 1.25333 30.8877 1.70667 30.8877 2.24C30.8877 2.77333 30.7143 3.22667 30.3677 3.6C30.021 3.97333 29.541 4.16 28.9277 4.16C28.3143 4.16 27.8477 3.98667 27.5277 3.64ZM27.4477 28V8H30.4877V28H27.4477ZM38.402 24.16C39.3887 24.16 40.082 24.4667 40.482 25.08L36.722 33.44L35.402 33.04L36.042 26.36C36.202 24.8933 36.9887 24.16 38.402 24.16ZM53.6405 10.6V8H56.6805L57.6405 2H59.7205V8H64.4005V10.6H59.7205V23.64C59.7205 25.1067 60.3205 25.84 61.5205 25.84C62.4271 25.84 63.4138 25.4533 64.4805 24.68L65.6005 26.72C64.0538 27.9467 62.5471 28.56 61.0805 28.56C59.6138 28.56 58.5071 28.2133 57.7605 27.52C57.0405 26.8 56.6805 25.5067 56.6805 23.64V10.6H53.6405ZM85.6827 28H82.6427V15.84C82.6427 12.0533 81.296 10.16 78.6027 10.16C77.056 10.16 75.6427 10.96 74.3627 12.56C73.1093 14.16 72.4427 16.36 72.3627 19.16V28H69.3227V-1.90735e-06H72.3627V11.88C73.1627 10.44 74.1627 9.34667 75.3627 8.6C76.5893 7.82667 77.8427 7.44 79.1227 7.44C83.496 7.44 85.6827 10.24 85.6827 15.84V28ZM92.3714 3.64C92.0514 3.26667 91.8914 2.8 91.8914 2.24C91.8914 1.68 92.0514 1.22667 92.3714 0.879999C92.6914 0.506665 93.1581 0.319999 93.7714 0.319999C94.3847 0.319999 94.8647 0.506665 95.2114 0.879999C95.5581 1.25333 95.7314 1.70667 95.7314 2.24C95.7314 2.77333 95.5581 3.22667 95.2114 3.6C94.8647 3.97333 94.3847 4.16 93.7714 4.16C93.1581 4.16 92.6914 3.98667 92.3714 3.64ZM92.2914 28V8H95.3314V28H92.2914ZM107.566 25.8C108.739 25.8 109.726 25.52 110.526 24.96C111.326 24.4 111.726 23.7067 111.726 22.88C111.726 22.0267 111.499 21.36 111.046 20.88C110.592 20.3733 110.099 20.0133 109.566 19.8C109.059 19.5867 108.326 19.3467 107.366 19.08C106.406 18.7867 105.672 18.5467 105.166 18.36C104.659 18.1467 104.059 17.8267 103.366 17.4C102.059 16.6 101.406 15.24 101.406 13.32C101.406 11.3733 102.059 9.90667 103.366 8.92C104.672 7.93333 106.206 7.44 107.966 7.44C109.059 7.44 110.152 7.58667 111.246 7.88C112.366 8.17333 113.206 8.48 113.766 8.8L112.646 11.24C111.366 10.5467 109.806 10.2 107.966 10.2C107.032 10.2 106.206 10.4533 105.486 10.96C104.792 11.44 104.446 12.0667 104.446 12.84C104.446 13.5867 104.659 14.1733 105.086 14.6C105.512 15.0267 105.952 15.3333 106.406 15.52C106.859 15.7067 107.552 15.9333 108.486 16.2C109.419 16.4667 110.166 16.72 110.726 16.96C111.312 17.1733 111.966 17.52 112.686 18C114.072 18.9333 114.766 20.4133 114.766 22.44C114.766 24.44 114.072 25.96 112.686 27C111.326 28.04 109.619 28.56 107.566 28.56C104.792 28.56 102.446 27.6667 100.526 25.88L102.166 23.68C103.632 25.0933 105.432 25.8 107.566 25.8ZM129.832 3.64C129.512 3.26667 129.352 2.8 129.352 2.24C129.352 1.68 129.512 1.22667 129.832 0.879999C130.152 0.506665 130.619 0.319999 131.232 0.319999C131.846 0.319999 132.326 0.506665 132.672 0.879999C133.019 1.25333 133.192 1.70667 133.192 2.24C133.192 2.77333 133.019 3.22667 132.672 3.6C132.326 3.97333 131.846 4.16 131.232 4.16C130.619 4.16 130.152 3.98667 129.832 3.64ZM129.752 28V8H132.792V28H129.752ZM145.027 25.8C146.2 25.8 147.187 25.52 147.987 24.96C148.787 24.4 149.187 23.7067 149.187 22.88C149.187 22.0267 148.96 21.36 148.507 20.88C148.053 20.3733 147.56 20.0133 147.027 19.8C146.52 19.5867 145.787 19.3467 144.827 19.08C143.867 18.7867 143.133 18.5467 142.627 18.36C142.12 18.1467 141.52 17.8267 140.827 17.4C139.52 16.6 138.867 15.24 138.867 13.32C138.867 11.3733 139.52 9.90667 140.827 8.92C142.133 7.93333 143.667 7.44 145.427 7.44C146.52 7.44 147.613 7.58667 148.707 7.88C149.827 8.17333 150.667 8.48 151.227 8.8L150.107 11.24C148.827 10.5467 147.267 10.2 145.427 10.2C144.493 10.2 143.667 10.4533 142.947 10.96C142.253 11.44 141.907 12.0667 141.907 12.84C141.907 13.5867 142.12 14.1733 142.547 14.6C142.973 15.0267 143.413 15.3333 143.867 15.52C144.32 15.7067 145.013 15.9333 145.947 16.2C146.88 16.4667 147.627 16.72 148.187 16.96C148.773 17.1733 149.427 17.52 150.147 18C151.533 18.9333 152.227 20.4133 152.227 22.44C152.227 24.44 151.533 25.96 150.147 27C148.787 28.04 147.08 28.56 145.027 28.56C142.253 28.56 139.907 27.6667 137.987 25.88L139.627 23.68C141.093 25.0933 142.893 25.8 145.027 25.8ZM167.213 28V0.8H170.413V12.92H183.373V0.8H186.573V28H183.373V15.88H170.413V28H167.213ZM194.376 25.64C192.909 23.6667 192.176 21.12 192.176 18C192.176 14.88 192.909 12.3467 194.376 10.4C195.842 8.42667 198.029 7.44 200.936 7.44C203.869 7.44 206.082 8.42667 207.576 10.4C209.069 12.3467 209.816 14.88 209.816 18C209.816 21.12 209.069 23.6667 207.576 25.64C206.082 27.5867 203.869 28.56 200.936 28.56C198.029 28.56 195.842 27.5867 194.376 25.64ZM196.656 12.36C195.696 13.8 195.216 15.68 195.216 18C195.216 20.32 195.696 22.2133 196.656 23.68C197.616 25.12 199.056 25.84 200.976 25.84C202.896 25.84 204.336 25.12 205.296 23.68C206.282 22.2133 206.776 20.32 206.776 18C206.776 15.68 206.282 13.8 205.296 12.36C204.336 10.8933 202.896 10.16 200.976 10.16C199.056 10.16 197.616 10.8933 196.656 12.36ZM225.016 7.44C229.39 7.44 231.576 10.24 231.576 15.84V28H228.536V15.84C228.536 12.0533 227.19 10.16 224.496 10.16C222.95 10.16 221.536 10.96 220.256 12.56C219.003 14.16 218.336 16.36 218.256 19.16V28H215.216V12L214.816 8L217.456 7.8L218.216 11.92C219.043 10.48 220.07 9.37333 221.296 8.6C222.523 7.82667 223.763 7.44 225.016 7.44ZM253.55 26.64C253.55 29.84 252.617 32.4533 250.75 34.48C248.91 36.5333 246.603 37.56 243.83 37.56C241.083 37.56 238.603 36.7867 236.39 35.24L237.91 32.88C238.55 33.4133 239.403 33.8533 240.47 34.2C241.537 34.5467 242.617 34.72 243.71 34.72C245.683 34.72 247.31 33.96 248.59 32.44C249.87 30.92 250.51 28.9733 250.51 26.6V24.72C249.017 27.28 246.923 28.56 244.23 28.56C241.937 28.56 240.057 27.6933 238.59 25.96C237.123 24.2267 236.39 21.7333 236.39 18.48C236.39 15.2 237.31 12.5467 239.15 10.52C241.017 8.46667 243.323 7.44 246.07 7.44C248.843 7.44 251.337 8.21333 253.55 9.76V26.64ZM239.43 18.4C239.43 20.8 239.937 22.64 240.95 23.92C241.963 25.2 243.257 25.84 244.83 25.84C246.43 25.84 247.777 25.04 248.87 23.44C249.963 21.84 250.51 19.56 250.51 16.6V11.16C249.177 10.4933 247.75 10.16 246.23 10.16C244.257 10.16 242.63 10.9333 241.35 12.48C240.07 14 239.43 15.9733 239.43 18.4ZM261.014 20.8L260.614 1.6H264.054L263.654 20.8H261.014ZM260.694 27.96C260.32 27.5333 260.134 27 260.134 26.36C260.134 25.72 260.32 25.2 260.694 24.8C261.067 24.3733 261.6 24.16 262.294 24.16C263.014 24.16 263.56 24.3733 263.934 24.8C264.334 25.2 264.534 25.72 264.534 26.36C264.534 27 264.334 27.5333 263.934 27.96C263.56 28.36 263.014 28.56 262.294 28.56C261.6 28.56 261.067 28.36 260.694 27.96Z" fill="#FABFBF"/>
</svg>
