<svg width="46" height="33" viewBox="0 0 46 33" fill="none" xmlns="http://www.w3.org/2000/svg">
<path d="M19.1976 2.152C19.1123 2.408 18.9843 2.70667 18.8136 3.048C18.643 3.38933 18.3656 3.592 17.9816 3.656C17.747 3.67733 17.5443 3.624 17.3736 3.496C17.2243 3.34667 17.139 3.19733 17.1176 3.048C17.0963 2.87733 17.139 2.792 17.2456 2.792C17.331 2.74933 17.395 2.728 17.4376 2.728C17.5443 2.728 17.6403 2.78133 17.7256 2.888C17.811 2.97333 17.939 3.00533 18.1096 2.984C18.3443 3.00533 18.5043 2.93067 18.5896 2.76C18.6963 2.568 18.7496 2.33333 18.7496 2.056C18.7496 1.88533 18.7283 1.69333 18.6856 1.48C18.6643 1.26667 18.611 1.08533 18.5256 0.935999C18.419 0.701333 18.2803 0.584 18.1096 0.584C17.8963 0.584 17.651 0.743999 17.3736 1.064C17.0963 1.36267 16.851 1.736 16.6376 2.184C16.4243 2.61067 16.2856 3.02667 16.2216 3.432L15.1336 10.504C15.3256 10.5253 15.475 10.5573 15.5816 10.6C15.7096 10.6213 15.827 10.632 15.9336 10.632C16.0403 10.632 16.1896 10.6 16.3816 10.536C17.4483 10.1093 18.1416 9.56533 18.4616 8.904C18.5683 8.75467 18.611 8.75467 18.5896 8.904C18.5683 9.032 18.515 9.20267 18.4296 9.416C18.3656 9.62933 18.2803 9.78933 18.1736 9.896C17.6403 10.536 17.1603 10.984 16.7336 11.24C16.307 11.496 15.9443 11.656 15.6456 11.72C15.3683 11.784 15.155 11.8693 15.0056 11.976C14.9203 12.0187 14.8776 12.1147 14.8776 12.264C14.8776 11.9867 14.867 11.848 14.8456 11.848C14.8243 11.848 14.7923 12.168 14.7496 12.808C14.707 13.448 14.6856 14.2053 14.6856 15.08C14.6856 15.8053 14.707 16.552 14.7496 17.32C14.7923 18.0667 14.867 18.76 14.9736 19.4C15.0803 20.0187 15.2296 20.5093 15.4216 20.872C15.6136 21.2133 15.8483 21.3413 16.1256 21.256C16.5736 21.0427 16.9576 20.8293 17.2776 20.616C17.5976 20.3813 17.875 20.0293 18.1096 19.56C18.2163 19.3467 18.323 19.144 18.4296 18.952C18.5363 18.76 18.5896 18.5573 18.5896 18.344C18.5896 18.1947 18.5363 18.0347 18.4296 17.864C18.2163 17.544 17.9923 17.384 17.7576 17.384C17.5016 17.384 17.2563 17.5333 17.0216 17.832C16.787 18.1307 16.5736 18.44 16.3816 18.76C16.211 19.0587 16.0723 19.2293 15.9656 19.272C15.8803 19.3147 15.8376 19.08 15.8376 18.568C15.8376 18.3547 15.8803 18.1627 15.9656 17.992C16.051 17.8213 16.1576 17.6613 16.2856 17.512C16.691 17.0427 17.1283 16.808 17.5976 16.808C17.683 16.808 17.7576 16.8187 17.8216 16.84C17.8856 16.84 17.9603 16.8507 18.0456 16.872C18.3443 16.8933 18.547 17.032 18.6536 17.288C18.7816 17.544 18.8456 17.8533 18.8456 18.216C18.8456 18.3227 18.835 18.44 18.8136 18.568C18.8136 18.696 18.803 18.824 18.7816 18.952C18.7176 19.4427 18.4936 19.9653 18.1096 20.52C17.7256 21.0533 17.299 21.4907 16.8296 21.832C16.3603 22.1947 15.955 22.344 15.6136 22.28C15.059 22.1733 14.611 21.864 14.2696 21.352C13.9496 20.84 13.7256 20.1893 13.5976 19.4C13.4696 18.6107 13.4056 17.7573 13.4056 16.84C13.4056 16.1147 13.4376 15.3787 13.5016 14.632C13.5656 13.864 13.6403 13.128 13.7256 12.424L11.3576 12.264C11.251 12.2853 11.123 12.296 10.9736 12.296C10.7816 12.296 10.6216 12.2853 10.4936 12.264C10.3656 12.2213 10.227 12.2 10.0776 12.2C9.94963 12.2 9.80029 12.2213 9.62963 12.264C9.48029 12.3067 9.27763 12.392 9.02163 12.52L7.42163 20.232C7.33629 20.7013 7.16563 21.2027 6.90963 21.736C6.65363 22.2907 6.34429 22.792 5.98163 23.24C5.61896 23.7093 5.21363 24.072 4.76562 24.328C4.33896 24.584 3.89096 24.6693 3.42163 24.584C2.88829 24.4773 2.41896 24.2533 2.01363 23.912C1.60829 23.5707 1.28829 23.1867 1.05363 22.76C0.882958 22.2693 0.786958 21.8 0.765625 21.352C0.722958 20.904 0.701625 20.616 0.701625 20.488C0.786958 20.0827 0.978958 19.6347 1.27763 19.144C1.57629 18.632 1.93896 18.2053 2.36563 17.864C2.79229 17.5013 3.22963 17.3627 3.67763 17.448C4.23229 17.5333 4.61629 17.7573 4.82963 18.12C5.06429 18.4827 5.22429 18.8987 5.30963 19.368C5.35229 19.5173 5.38429 19.6667 5.40563 19.816C5.42696 19.9653 5.43763 20.1147 5.43763 20.264C5.43763 20.4347 5.40563 20.6053 5.34163 20.776C5.27763 20.9253 5.14963 21.0533 4.95763 21.16C4.80829 21.2667 4.58429 21.32 4.28563 21.32C3.94429 21.32 3.63496 21.2347 3.35763 21.064C3.10163 20.9147 3.03763 20.7333 3.16563 20.52C3.22963 20.392 3.32563 20.328 3.45363 20.328C3.60296 20.328 3.76296 20.3707 3.93363 20.456C4.10429 20.52 4.26429 20.552 4.41363 20.552C4.56296 20.552 4.68029 20.5093 4.76562 20.424C4.82963 20.3173 4.86163 20.2107 4.86163 20.104C4.86163 19.7413 4.71229 19.336 4.41363 18.888C4.13629 18.4187 3.79496 18.152 3.38963 18.088C3.26163 18.0667 3.04829 18.152 2.74963 18.344C2.47229 18.536 2.19496 18.8133 1.91763 19.176C1.66163 19.5387 1.46963 19.9867 1.34163 20.52C1.32029 20.904 1.34163 21.2667 1.40563 21.608C1.49096 21.9493 1.60829 22.2693 1.75763 22.568C1.92829 22.9307 2.16296 23.112 2.46163 23.112C2.76029 23.1333 3.09096 23.1867 3.45363 23.272C3.56029 23.2933 3.65629 23.304 3.74163 23.304C3.84829 23.3253 3.94429 23.336 4.02963 23.336C4.73363 23.336 5.24563 23.048 5.56563 22.472C5.90696 21.896 6.15229 21.1493 6.30163 20.232L7.67763 12.744C7.14429 13.064 6.82429 13.288 6.71763 13.416C6.61096 13.544 6.47229 13.672 6.30163 13.8C6.21629 13.8427 6.16296 13.864 6.14163 13.864C6.03496 13.864 5.98163 13.7787 5.98163 13.608C5.98163 13.5013 6.00296 13.384 6.04563 13.256C6.21629 12.7013 6.48296 12.296 6.84563 12.04C7.20829 11.7627 7.50696 11.4747 7.74163 11.176C7.93363 10.9413 8.02963 10.664 8.02963 10.344C8.09363 10.088 8.12563 9.74667 8.12563 9.32C8.12563 8.76533 8.06163 8.136 7.93363 7.432C7.82696 6.70667 7.64563 6.00267 7.38963 5.32C7.15496 4.63733 6.83496 4.06133 6.42963 3.592C6.02429 3.10133 5.53363 2.80267 4.95763 2.696C4.82963 2.67467 4.70163 2.664 4.57363 2.664C4.46696 2.64267 4.36029 2.632 4.25363 2.632C3.86963 2.632 3.53896 2.696 3.26163 2.824C3.00563 2.93067 2.87762 3.10133 2.87762 3.336C2.87762 3.54933 2.93096 3.69866 3.03763 3.784C3.14429 3.848 3.27229 3.88 3.42163 3.88C3.57096 3.88 3.72029 3.86933 3.86963 3.848C4.01896 3.80533 4.15763 3.784 4.28563 3.784C4.49896 3.784 4.60563 3.88 4.60563 4.072C4.60563 4.28533 4.50963 4.43467 4.31763 4.52C4.14696 4.60533 3.94429 4.648 3.70963 4.648C3.38963 4.648 3.10163 4.57333 2.84563 4.424C2.52563 4.18933 2.36563 3.90133 2.36563 3.56C2.36563 2.62133 2.60029 1.94933 3.06963 1.544C3.56029 1.13867 4.16829 0.935999 4.89363 0.935999C6.02429 0.935999 6.96296 1.33067 7.70963 2.12C8.45629 2.888 8.87229 3.86933 8.95763 5.064C8.97896 5.36267 9.02163 5.98133 9.08563 6.92C9.17096 7.83733 9.21362 8.808 9.21362 9.832C9.21362 10.024 9.21362 10.2267 9.21362 10.44C9.21362 10.632 9.20296 10.824 9.18163 11.016L13.9496 10.984C13.9923 10.8347 14.0456 10.472 14.1096 9.896C14.195 9.32 14.3016 8.62667 14.4296 7.816C14.5576 7.00533 14.7283 6.16267 14.9416 5.288C15.155 4.41333 15.4003 3.592 15.6776 2.824C15.9763 2.056 16.3176 1.43733 16.7016 0.967999C17.0856 0.477332 17.523 0.231998 18.0136 0.231998C18.3336 0.231998 18.611 0.338665 18.8456 0.551998C19.1016 0.743998 19.2296 1.096 19.2296 1.608C19.2296 1.69333 19.2296 1.77866 19.2296 1.864C19.2296 1.94933 19.219 2.04533 19.1976 2.152ZM26.5654 14.984C26.5654 15.432 26.4694 16.0187 26.2774 16.744C26.0854 17.4693 25.8294 18.152 25.5094 18.792C25.2107 19.4533 24.8694 19.944 24.4854 20.264C24.1227 20.5627 23.7707 20.776 23.4294 20.904C23.088 21.0107 22.8107 21.1173 22.5974 21.224C22.512 21.2453 22.416 21.2667 22.3094 21.288C22.224 21.3307 22.128 21.352 22.0214 21.352C21.5947 21.352 21.264 21.2347 21.0294 21C20.944 20.9147 20.8054 20.8293 20.6134 20.744C20.4427 20.6587 20.2827 20.5093 20.1334 20.296C19.984 20.0827 19.9094 19.7307 19.9094 19.24C19.9094 18.728 19.9734 18.2373 20.1014 17.768C19.7174 17.32 19.5254 16.8293 19.5254 16.296C19.5254 15.976 19.6 15.6667 19.7494 15.368C20.1547 14.6 20.6667 14.0027 21.2854 13.576C21.904 13.1493 22.4907 12.8507 23.0454 12.68C23.6214 12.5093 24.016 12.424 24.2294 12.424C25.0187 12.424 25.6054 12.68 25.9894 13.192C26.3734 13.704 26.5654 14.3013 26.5654 14.984ZM25.2534 15.144C25.2534 14.6533 25.0827 14.248 24.7414 13.928C24.4214 13.608 24.016 13.448 23.5254 13.448C23.12 13.448 22.704 13.576 22.2774 13.832C21.872 14.0667 21.52 14.3653 21.2214 14.728C20.9227 15.0907 20.7307 15.4427 20.6454 15.784C20.624 15.912 20.6027 16.0293 20.5814 16.136C20.5814 16.2427 20.5814 16.3493 20.5814 16.456C20.816 15.944 21.0614 15.5173 21.3174 15.176C21.5947 14.8347 21.7974 14.6213 21.9254 14.536C22.032 14.4507 22.1707 14.408 22.3414 14.408C22.576 14.408 22.6934 14.472 22.6934 14.6C22.6934 14.6853 22.576 14.8453 22.3414 15.08C22.128 15.2933 21.8827 15.5813 21.6054 15.944C21.328 16.2853 21.0934 16.712 20.9014 17.224C21.072 17.4373 21.296 17.5973 21.5734 17.704C21.872 17.7893 22.16 17.832 22.4374 17.832C22.736 17.832 23.0134 17.7787 23.2694 17.672C23.5467 17.544 23.728 17.3733 23.8134 17.16C23.8347 17.096 23.8454 17.0427 23.8454 17C23.8667 16.936 23.8774 16.8827 23.8774 16.84C23.8774 16.6267 23.7814 16.4987 23.5894 16.456C23.4187 16.392 23.248 16.3707 23.0774 16.392H23.0134C22.7787 16.392 22.6614 16.3387 22.6614 16.232C22.6614 16.168 22.6827 16.104 22.7254 16.04C22.7894 15.976 22.8427 15.9227 22.8854 15.88C23.0134 15.752 23.152 15.688 23.3014 15.688C23.5147 15.688 23.7494 15.8267 24.0054 16.104C24.24 16.424 24.3574 16.7333 24.3574 17.032C24.3574 17.416 24.1654 17.7147 23.7814 17.928C23.4187 18.1413 23.0134 18.2907 22.5654 18.376C22.1174 18.4613 21.776 18.504 21.5414 18.504C21.2 18.504 20.9227 18.4293 20.7094 18.28C20.688 18.3227 20.6774 18.4187 20.6774 18.568C20.6774 19.1653 20.8374 19.5707 21.1574 19.784C21.4774 19.976 21.744 20.1253 21.9574 20.232C22.0854 20.2747 22.192 20.296 22.2774 20.296C22.576 20.296 22.8854 20.168 23.2054 19.912C23.5467 19.656 23.8454 19.304 24.1014 18.856C24.2934 18.5147 24.4747 18.1093 24.6454 17.64C24.816 17.1707 24.9547 16.712 25.0614 16.264C25.1894 15.7947 25.2534 15.4213 25.2534 15.144ZM33.4514 15.176C33.4514 15.6667 33.4087 16.0293 33.3234 16.264C33.2594 16.4987 33.1634 16.6907 33.0354 16.84C32.9287 16.9893 32.8114 17.16 32.6834 17.352C32.5554 17.544 32.4487 17.832 32.3634 18.216C32.2994 18.5787 32.2674 19.112 32.2674 19.816C32.2674 20.0933 32.374 20.3173 32.5874 20.488C32.8007 20.6587 33.046 20.744 33.3234 20.744C33.4514 20.744 33.5154 20.7867 33.5154 20.872C33.5154 20.9787 33.43 21.1067 33.2594 21.256C33.11 21.4267 32.9714 21.512 32.8434 21.512C32.374 21.512 32.0327 21.3307 31.8194 20.968C31.606 20.584 31.4994 20.1787 31.4994 19.752C31.4994 19.048 31.5207 18.4933 31.5634 18.088C31.606 17.6613 31.6487 17.2667 31.6914 16.904C31.734 16.52 31.7447 16.0507 31.7234 15.496C31.702 15.112 31.6487 14.8133 31.5634 14.6C31.478 14.3653 31.254 14.248 30.8914 14.248C30.6994 14.248 30.5607 14.28 30.4754 14.344C30.4114 14.408 30.326 14.5147 30.2194 14.664C29.9847 15.0053 29.782 15.4853 29.6114 16.104C29.462 16.7013 29.334 17.3413 29.2274 18.024C29.142 18.6853 29.0567 19.2827 28.9714 19.816C28.9074 20.328 28.8434 20.6693 28.7794 20.84C28.7154 20.9893 28.63 21.096 28.5234 21.16C28.438 21.224 28.342 21.256 28.2354 21.256C28.15 21.256 28.0647 21.2347 27.9794 21.192C27.9154 21.1707 27.862 21.1493 27.8194 21.128C27.7127 21.064 27.6594 20.9573 27.6594 20.808C27.6594 20.6587 27.6914 20.488 27.7554 20.296C27.8407 20.0827 27.9047 19.8907 27.9474 19.72C27.99 19.5493 28.054 19.2507 28.1394 18.824C28.246 18.376 28.3527 17.9173 28.4594 17.448C28.566 16.9573 28.6514 16.5413 28.7154 16.2C28.8007 15.8373 28.8434 15.656 28.8434 15.656C28.7367 15.656 28.63 15.6667 28.5234 15.688C28.4167 15.688 28.31 15.688 28.2034 15.688C27.8834 15.688 27.7234 15.56 27.7234 15.304C27.7234 15.1333 27.7874 14.8773 27.9154 14.536C28.0434 14.1947 28.278 13.7467 28.6194 13.192C28.726 13.0213 28.9394 12.808 29.2594 12.552C29.5794 12.296 29.846 12.1893 30.0594 12.232C30.1447 12.1893 30.2194 12.168 30.2834 12.168C30.3474 12.168 30.4007 12.168 30.4434 12.168C30.678 12.168 30.806 12.2533 30.8274 12.424C30.87 12.5733 30.8807 12.7333 30.8594 12.904C30.838 13.0533 30.8487 13.1173 30.8914 13.096C31.19 12.968 31.4887 12.904 31.7874 12.904C32.2354 12.904 32.6194 13.0853 32.9394 13.448C33.2807 13.7893 33.4514 14.3653 33.4514 15.176ZM44.8329 11.528C44.9609 11.6773 45.0249 11.9227 45.0249 12.264C45.0249 12.7333 44.9182 13.3307 44.7049 14.056C44.5129 14.7813 44.2782 15.56 44.0009 16.392C43.7449 17.224 43.5102 18.056 43.2969 18.888C43.1049 19.6987 42.9982 20.4453 42.9769 21.128C42.9555 21.9813 42.9022 22.7173 42.8169 23.336C42.7529 23.9547 42.6462 24.552 42.4969 25.128C42.3475 25.704 42.1342 26.3547 41.8569 27.08C41.6009 27.8053 41.2595 28.712 40.8329 29.8C40.0009 30.824 39.1049 31.528 38.1449 31.912C37.1849 32.3173 36.1929 32.4773 35.1689 32.392C34.7635 32.3493 34.3369 32.0827 33.8889 31.592C33.4195 31.1013 33.0249 30.4507 32.7049 29.64C32.3849 28.8293 32.2249 27.944 32.2249 26.984C32.2249 26.6 32.2569 26.216 32.3209 25.832C32.4275 25.192 32.5875 24.552 32.8009 23.912C33.0142 23.272 33.3235 22.7387 33.7289 22.312C34.1342 21.8853 34.6782 21.672 35.3609 21.672C35.9155 21.672 36.4275 21.8747 36.8969 22.28C37.3875 22.7067 37.7929 23.1867 38.1129 23.72C38.4542 24.2533 38.6782 24.7227 38.7849 25.128C38.8489 25.384 38.9022 25.6507 38.9449 25.928C39.0089 26.2267 39.0409 26.5147 39.0409 26.792C39.0409 27.2827 38.9449 27.624 38.7529 27.816C38.5395 28.0507 38.2835 28.168 37.9849 28.168C37.7289 28.168 37.4409 28.104 37.1209 27.976C36.9075 27.9333 36.6622 27.784 36.3849 27.528C36.1075 27.2933 35.9689 26.984 35.9689 26.6C35.9689 26.344 36.0222 26.0987 36.1289 25.864C36.2355 25.6293 36.3315 25.4693 36.4169 25.384C36.5662 25.2347 36.6835 25.16 36.7689 25.16C36.8542 25.16 36.9075 25.2027 36.9289 25.288C36.9502 25.3947 36.9715 25.5013 36.9929 25.608V25.64C36.9929 25.704 36.9609 25.768 36.8969 25.832C36.8329 25.9173 36.8009 26.0347 36.8009 26.184C36.8009 26.5467 36.8969 26.8027 37.0889 26.952C37.3022 27.1227 37.4515 27.208 37.5369 27.208C37.8142 27.208 37.9529 26.9307 37.9529 26.376C37.9529 25.928 37.8249 25.384 37.5689 24.744C37.3555 24.2107 37.0569 23.7413 36.6729 23.336C36.2889 22.952 35.8515 22.7173 35.3609 22.632C35.0835 22.5893 34.7955 22.6533 34.4969 22.824C34.1769 23.016 33.8995 23.3573 33.6649 23.848C33.5155 24.1253 33.4195 24.4347 33.3769 24.776C33.3129 25.1173 33.2809 25.4587 33.2809 25.8C33.2809 26.248 33.3129 26.632 33.3769 26.952C33.4195 28.1893 33.7502 29.1387 34.3689 29.8C34.9875 30.4827 35.7875 30.824 36.7689 30.824C36.8755 30.824 36.9822 30.824 37.0889 30.824C37.1955 30.824 37.3022 30.8133 37.4089 30.792C38.0489 30.7067 38.6675 30.3867 39.2649 29.832C39.8622 29.2987 40.3635 28.6587 40.7689 27.912C41.0249 27.464 41.2062 26.9093 41.3129 26.248C41.4195 25.608 41.4942 24.936 41.5369 24.232C41.6009 23.528 41.6755 22.8987 41.7609 22.344C41.8035 22.152 41.8249 21.9813 41.8249 21.832C41.8249 21.704 41.8249 21.5973 41.8249 21.512C41.8249 21.2773 41.8035 21.0427 41.7609 20.808C41.7395 20.552 41.7289 20.1253 41.7289 19.528C41.7289 19.3573 41.7289 19.1653 41.7289 18.952C41.7289 18.7387 41.7395 18.4933 41.7609 18.216C40.7582 18.7707 39.8622 19.048 39.0729 19.048C38.1129 19.048 37.3129 18.632 36.6729 17.8C36.4382 17.5013 36.3209 17.16 36.3209 16.776C36.3209 16.264 36.4915 15.7307 36.8329 15.176C37.1955 14.6 37.6649 14.056 38.2409 13.544C38.8382 13.0107 39.4782 12.5627 40.1609 12.2C40.8649 11.816 41.5475 11.5707 42.2089 11.464C42.5075 11.4213 42.8062 11.3573 43.1049 11.272C43.4249 11.1653 43.7129 11.112 43.9689 11.112C44.3315 11.112 44.6195 11.2507 44.8329 11.528ZM43.2329 13.896C43.2755 13.704 43.3182 13.5227 43.3609 13.352C43.4249 13.16 43.4569 12.9893 43.4569 12.84C43.4569 12.7333 43.4462 12.6267 43.4249 12.52C43.4035 12.392 43.3395 12.2853 43.2329 12.2C43.1049 12.0507 42.9022 11.976 42.6249 11.976C42.2622 11.976 41.8249 12.1147 41.3129 12.392C40.8009 12.6693 40.2995 13.0533 39.8089 13.544C39.3395 14.0133 38.9769 14.5787 38.7209 15.24C38.6142 15.5173 38.5075 15.8693 38.4009 16.296C38.2942 16.7013 38.2409 17.0853 38.2409 17.448C38.2409 17.7893 38.2942 18.0453 38.4009 18.216C38.5289 18.3653 38.7635 18.44 39.1049 18.44C39.4249 18.44 39.7769 18.376 40.1609 18.248C40.5662 18.0987 40.9075 17.9067 41.1849 17.672C41.8249 17.0747 42.2835 16.456 42.5609 15.816C42.8595 15.1547 43.0835 14.5147 43.2329 13.896Z" fill="black"/>
</svg>
