<svg width="167" height="41" viewBox="0 0 167 41" fill="none" xmlns="http://www.w3.org/2000/svg">
<path d="M28.5639 7.84C28.5639 9.38667 28.2572 10.7467 27.6439 11.92C27.0306 13.0667 26.2439 14.0667 25.2839 14.92C24.3239 15.7733 23.3239 16.4933 22.2839 17.08C21.6439 17.4267 20.9372 17.8267 20.1639 18.28C19.4172 18.7067 18.6172 19.08 17.7639 19.4C16.9106 19.72 15.9906 19.88 15.0039 19.88C14.7372 21.2667 14.3106 22.5733 13.7239 23.8C13.1372 25 12.3772 26.0667 11.4439 27C11.2039 27.24 10.9106 27.4933 10.5639 27.76C10.2439 28 9.8839 28.2267 9.4839 28.44C10.0972 28.6533 10.6172 28.8267 11.0439 28.96C11.4972 29.12 12.0439 29.3067 12.6839 29.52C13.4039 29.76 14.0172 30.0267 14.5239 30.32C15.0306 30.6133 15.5239 30.9067 16.0039 31.2C16.4839 31.4933 17.0172 31.7333 17.6039 31.92C18.1906 32.1067 18.9239 32.2 19.8039 32.2C20.6572 32.2 21.4972 32.0667 22.3239 31.8C23.1772 31.56 23.8839 31.1733 24.4439 30.64C25.0306 30.1333 25.3239 29.4667 25.3239 28.64C25.3239 27.8667 25.0572 27.3067 24.5239 26.96C23.9906 26.5867 23.3372 26.4 22.5639 26.4C21.9772 26.4 21.4972 26.6667 21.1239 27.2C20.7506 27.7067 20.4839 28.1467 20.3239 28.52C20.0572 29.08 19.8306 29.36 19.6439 29.36C19.4306 29.36 19.3239 29.1333 19.3239 28.68C19.3239 28.44 19.3639 28.1733 19.4439 27.88C19.5506 27.5867 19.6972 27.3067 19.8839 27.04C20.1772 26.6133 20.5239 26.2667 20.9239 26C21.3239 25.7333 21.8706 25.6 22.5639 25.6C23.5506 25.6 24.4439 25.88 25.2439 26.44C26.0439 26.9733 26.4439 27.7333 26.4439 28.72C26.4439 29.68 26.1506 30.52 25.5639 31.24C25.0039 31.96 24.2706 32.52 23.3639 32.92C22.4839 33.32 21.5506 33.52 20.5639 33.52C19.3639 33.52 18.4039 33.4133 17.6839 33.2C16.9639 33.0133 16.2839 32.76 15.6439 32.44C15.0306 32.1467 14.2572 31.8533 13.3239 31.56C12.6572 31.3467 11.8706 31 10.9639 30.52C10.0572 30.0667 9.25723 29.7067 8.5639 29.44C8.4839 29.3867 8.39056 29.3333 8.2839 29.28C8.2039 29.2533 8.11056 29.2133 8.0039 29.16C7.25723 29.48 6.47056 29.7333 5.6439 29.92C4.8439 30.1333 4.05723 30.24 3.2839 30.24C3.01723 30.24 2.6839 30.1333 2.2839 29.92C1.91056 29.7333 1.57723 29.48 1.2839 29.16C1.01723 28.84 0.883897 28.4933 0.883897 28.12C0.883897 27.88 0.97723 27.6 1.1639 27.28C1.37723 26.9333 1.63056 26.64 1.9239 26.4C2.2439 26.16 2.55056 26.04 2.8439 26.04C3.45723 26.04 4.19056 26.2 5.0439 26.52C5.9239 26.84 6.73723 27.1867 7.4839 27.56C7.75056 27.2933 8.0039 27.04 8.2439 26.8C8.4839 26.5333 8.7239 26.28 8.9639 26.04C9.7639 25.24 10.4439 24.2933 11.0039 23.2C11.5639 22.1067 12.0572 20.96 12.4839 19.76C11.2572 19.6533 10.0572 19.4533 8.8839 19.16C7.71056 18.84 6.6439 18.4 5.6839 17.84C4.75056 17.28 3.99056 16.5867 3.4039 15.76C2.8439 14.9067 2.5639 13.8933 2.5639 12.72C2.5639 11.4667 2.8839 10.2933 3.5239 9.2C4.19056 8.08 5.05723 7.17333 6.1239 6.48C7.19056 5.78667 8.33723 5.44 9.5639 5.44C11.0839 5.44 12.2972 5.70667 13.2039 6.24C14.1106 6.77333 14.5639 7.8 14.5639 9.32C14.5639 10.04 14.3372 10.7467 13.8839 11.44C13.4572 12.1067 13.0172 12.5867 12.5639 12.88C12.4572 12.9333 12.3906 12.96 12.3639 12.96C12.1239 12.96 12.0039 12.8267 12.0039 12.56C12.0039 12.4 12.0572 12.28 12.1639 12.2C12.4572 11.96 12.7906 11.5733 13.1639 11.04C13.5639 10.5067 13.7639 9.93333 13.7639 9.32C13.7639 8.06667 13.3772 7.24 12.6039 6.84C11.8306 6.44 10.8172 6.24 9.5639 6.24C8.47056 6.24 7.55056 6.56 6.8039 7.2C6.05723 7.84 5.49723 8.66667 5.1239 9.68C4.75056 10.6667 4.5639 11.7333 4.5639 12.88C4.5639 14.2933 4.95056 15.4267 5.7239 16.28C6.49723 17.1333 7.51056 17.7733 8.7639 18.2C10.0172 18.6 11.3506 18.8667 12.7639 19C12.9506 18.4667 13.1239 17.9467 13.2839 17.44C13.4439 16.9333 13.6039 16.4267 13.7639 15.92C14.3772 14.1333 14.9239 12.3467 15.4039 10.56C15.9106 8.74667 16.5506 7.06667 17.3239 5.52C17.6706 4.8 18.0706 4.09333 18.5239 3.4C19.0039 2.68 19.5772 2.08 20.2439 1.6C20.9372 1.12 21.7906 0.879999 22.8039 0.879999C23.3906 0.879999 23.9772 0.919999 24.5639 1C25.1506 1.08 25.6172 1.25333 25.9639 1.52C26.7906 2.18667 27.4306 3.04 27.8839 4.08C28.3372 5.09333 28.5639 6.34667 28.5639 7.84ZM25.7639 7.84C25.8972 7.30667 25.9906 6.82667 26.0439 6.4C26.1239 5.97333 26.1639 5.58667 26.1639 5.24C26.1639 4.22667 25.7372 3.38666 24.8839 2.72C24.6172 2.50667 24.3372 2.38667 24.0439 2.36C23.7772 2.30667 23.4039 2.28 22.9239 2.28C21.5372 2.28 20.4839 2.65333 19.7639 3.4C19.0706 4.12 18.4972 4.94667 18.0439 5.88C17.2706 7.42667 16.6839 9.08 16.2839 10.84C15.8839 12.5733 15.5772 14.7067 15.3639 17.24C15.3372 17.56 15.3106 17.88 15.2839 18.2C15.2572 18.4933 15.2172 18.7867 15.1639 19.08C16.0706 19.0533 16.9106 18.8933 17.6839 18.6C18.4572 18.28 19.1906 17.9067 19.8839 17.48C20.5772 17.0533 21.2306 16.6667 21.8439 16.32C22.5639 15.92 23.1506 15.3733 23.6039 14.68C24.0839 13.96 24.4439 13.1867 24.6839 12.36C24.9506 11.5067 25.1639 10.68 25.3239 9.88C25.4839 9.08 25.6306 8.4 25.7639 7.84ZM6.4439 28.4C5.9639 28.16 5.47056 27.9467 4.9639 27.76C4.45723 27.5733 3.97723 27.48 3.5239 27.48C3.23056 27.48 2.95056 27.56 2.6839 27.72C2.4439 27.88 2.3239 28.08 2.3239 28.32C2.3239 28.6667 2.41723 28.9333 2.6039 29.12C2.79056 29.3333 3.01723 29.44 3.2839 29.44C3.9239 29.44 4.49723 29.3333 5.0039 29.12C5.53723 28.9333 6.01723 28.6933 6.4439 28.4ZM34.242 11.84C34.0554 11.84 33.8687 11.8133 33.682 11.76C33.522 11.68 33.362 11.5867 33.202 11.48C32.8554 11.32 32.682 10.9733 32.682 10.44C32.682 10.2 32.7354 9.93333 32.842 9.64C32.9754 9.34667 33.1754 9.06667 33.442 8.8C33.6287 8.61333 33.8554 8.52 34.122 8.52C34.362 8.52 34.5887 8.61333 34.802 8.8C34.9087 8.90667 34.9754 9.08 35.002 9.32C35.0554 9.53333 35.082 9.77333 35.082 10.04C35.082 10.36 35.0554 10.68 35.002 11C34.9487 11.2933 34.8554 11.5067 34.722 11.64C34.5354 11.7733 34.3754 11.84 34.242 11.84ZM30.162 27.56C29.1754 27.56 28.4954 27.3333 28.122 26.88C27.7487 26.4267 27.562 25.88 27.562 25.24C27.562 24.9467 27.5887 24.6533 27.642 24.36C27.6954 24.0667 27.762 23.7733 27.842 23.48C27.5754 23.96 27.162 24.52 26.602 25.16C26.042 25.7733 25.522 26.2667 25.042 26.64C24.9354 26.72 24.8287 26.76 24.722 26.76C24.562 26.76 24.482 26.6667 24.482 26.48C24.482 26.2667 24.562 26.08 24.722 25.92C25.842 24.7467 26.6954 23.8 27.282 23.08C27.8687 22.3333 28.322 21.7067 28.642 21.2C28.962 20.6933 29.2687 20.2267 29.562 19.8C29.802 19.0267 30.0154 18.28 30.202 17.56C30.4154 16.8133 30.7354 16.0533 31.162 15.28C31.2954 15.04 31.562 14.92 31.962 14.92C32.2287 14.92 32.4687 14.9867 32.682 15.12C32.8954 15.2533 33.002 15.48 33.002 15.8C33.002 15.96 32.962 16.1467 32.882 16.36C32.5887 17.1867 32.2687 17.8933 31.922 18.48C31.602 19.04 31.1754 19.76 30.642 20.64C30.082 21.5467 29.6287 22.4267 29.282 23.28C28.962 24.1333 28.802 24.8533 28.802 25.44C28.802 25.8133 28.882 26.12 29.042 26.36C29.2287 26.6 29.4954 26.72 29.842 26.72C30.5887 26.7467 31.162 26.6267 31.562 26.36C31.962 26.0667 32.2954 25.7867 32.562 25.52C32.9087 25.1467 33.202 24.8 33.442 24.48C33.7087 24.16 33.9487 23.88 34.162 23.64C34.322 23.48 34.402 23.5067 34.402 23.72C34.402 23.8533 34.362 24.0267 34.282 24.24C34.2287 24.4533 34.162 24.6133 34.082 24.72C33.8154 25.0933 33.4954 25.5067 33.122 25.96C32.7754 26.4133 32.362 26.8 31.882 27.12C31.402 27.4133 30.8287 27.56 30.162 27.56ZM45.3048 3.28C45.3582 3.44 45.3848 3.61333 45.3848 3.8C45.3848 4.36 45.2515 5.13333 44.9848 6.12C44.7448 7.10666 44.4515 8.12 44.1048 9.16C43.7582 10.1733 43.4515 11.0533 43.1848 11.8C42.3582 14.0667 41.5715 15.9067 40.8248 17.32C40.1048 18.7333 39.4648 19.84 38.9048 20.64C38.3448 21.4133 37.9048 21.9867 37.5848 22.36C37.2648 22.7333 37.1048 23.0133 37.1048 23.2C37.2915 23.6 37.4515 24.1867 37.5848 24.96C37.7182 25.7067 37.7982 26.36 37.8248 26.92C38.0382 26.9733 38.3048 27 38.6248 27C38.8915 27 39.1715 26.9733 39.4648 26.92C39.7582 26.8667 40.0382 26.7867 40.3048 26.68C41.1582 26.3067 41.8648 25.7867 42.4248 25.12C42.9848 24.4267 43.3848 23.9067 43.6248 23.56C43.7315 23.4267 43.8382 23.36 43.9448 23.36C44.0782 23.36 44.1715 23.44 44.2248 23.6C44.2782 23.7333 44.2648 23.8667 44.1848 24C43.6515 24.8267 43.1048 25.5333 42.5448 26.12C41.9848 26.7067 41.3448 27.16 40.6248 27.48C39.8782 27.8 39.2515 27.9867 38.7448 28.04C38.2382 28.0933 37.9848 28.12 37.9848 28.12C37.9315 28.3333 37.8782 28.5467 37.8248 28.76C37.7982 29 37.7448 29.3467 37.6648 29.8C37.5848 30.2533 37.4648 30.9333 37.3048 31.84C36.9582 33.6533 36.5315 35.3067 36.0248 36.8C35.5182 38.2933 34.6382 39.5733 33.3848 40.64C33.2248 40.7467 33.0782 40.8 32.9448 40.8C32.6782 40.8 32.3982 40.6933 32.1048 40.48C31.8115 40.2933 31.6248 40.0533 31.5448 39.76C31.4648 39.4667 31.3982 39.04 31.3448 38.48C31.2915 37.9467 31.2515 37.4 31.2248 36.84C31.1982 36.28 31.1848 35.84 31.1848 35.52C31.1848 34.3733 31.3715 32.8533 31.7448 30.96C32.1182 29.0933 32.6382 27.0133 33.3048 24.72C33.9715 22.4 34.7715 20.0267 35.7048 17.6C36.6382 15.1467 37.6648 12.8 38.7848 10.56C39.1848 9.76 39.6382 8.90667 40.1448 8C40.6782 7.09333 41.2115 6.24 41.7448 5.44C42.3048 4.61333 42.8382 3.94667 43.3448 3.44C43.8515 2.93333 44.2782 2.68 44.6248 2.68C44.9448 2.68 45.1715 2.88 45.3048 3.28ZM43.8248 5.28C43.5048 5.46667 43.1582 5.90667 42.7848 6.6C42.4382 7.26666 42.0915 8.01333 41.7448 8.84C41.3982 9.64 41.0648 10.36 40.7448 11C40.0248 12.4667 39.2915 14.0667 38.5448 15.8C37.8248 17.5067 37.1182 19.4933 36.4248 21.76C36.7182 21.4667 37.1182 20.96 37.6248 20.24C38.1315 19.52 38.6648 18.6667 39.2248 17.68C39.7848 16.6667 40.3315 15.6267 40.8648 14.56C41.4248 13.4933 41.8915 12.48 42.2648 11.52C42.5848 10.7733 42.8782 10 43.1448 9.2C43.4115 8.37333 43.6248 7.62667 43.7848 6.96C43.9448 6.29333 44.0248 5.81333 44.0248 5.52C44.0248 5.28 43.9582 5.2 43.8248 5.28ZM36.5048 25C36.4515 24.7867 36.3715 24.5733 36.2648 24.36C36.1848 24.12 36.0382 24.0267 35.8248 24.08C35.6648 24.2667 35.5315 24.48 35.4248 24.72C35.3448 24.96 35.3048 25.3067 35.3048 25.76C35.3048 25.76 35.3848 25.84 35.5448 26C35.7315 26.1333 35.9582 26.16 36.2248 26.08C36.3048 26.0267 36.3848 25.9733 36.4648 25.92C36.5448 25.8667 36.5848 25.7467 36.5848 25.56C36.5848 25.48 36.5848 25.4 36.5848 25.32C36.5848 25.2133 36.5582 25.1067 36.5048 25ZM36.6648 27.8C36.6648 27.8 36.6115 27.8133 36.5048 27.84C36.3982 27.8667 36.2648 27.88 36.1048 27.88C35.8915 27.88 35.6515 27.8267 35.3848 27.72C35.1182 27.5867 34.9315 27.3467 34.8248 27C34.6115 27.8533 34.4515 28.48 34.3448 28.88C34.2382 29.28 34.1582 29.5733 34.1048 29.76C34.0515 29.9467 33.9982 30.1467 33.9448 30.36C33.9182 30.5733 33.8648 30.9333 33.7848 31.44C33.7048 31.9467 33.5715 32.72 33.3848 33.76C33.2782 34.2933 33.1848 34.8933 33.1048 35.56C33.0248 36.2533 32.9848 36.8667 32.9848 37.4C32.9848 37.8 33.0115 38.12 33.0648 38.36C33.1448 38.6 33.2515 38.7067 33.3848 38.68C33.5448 38.6533 33.7048 38.48 33.8648 38.16C34.0515 37.8667 34.2382 37.52 34.4248 37.12C34.6115 36.7467 34.7848 36.44 34.9448 36.2C35.1848 35.8267 35.3582 35.4667 35.4648 35.12C35.5982 34.7733 35.7182 34.28 35.8248 33.64C35.9582 33.0267 36.1448 32.1467 36.3848 31C36.4648 30.6267 36.5182 30.1867 36.5448 29.68C36.5982 29.2 36.6248 28.76 36.6248 28.36C36.6515 27.9867 36.6648 27.8 36.6648 27.8ZM51.997 23.12C51.6504 23.7067 51.2104 24.3467 50.677 25.04C50.1437 25.7067 49.5837 26.28 48.997 26.76C48.437 27.24 47.9037 27.48 47.397 27.48C46.5704 27.48 45.917 27.44 45.437 27.36C44.9837 27.2533 44.6104 27.1067 44.317 26.92C43.8104 26.5733 43.397 26.12 43.077 25.56C42.757 25 42.5704 24.4267 42.517 23.84C42.4904 23.68 42.477 23.52 42.477 23.36C42.477 23.2 42.477 23.0533 42.477 22.92C42.477 21.3467 42.7837 19.96 43.397 18.76C44.0104 17.56 44.877 16.84 45.997 16.6C46.3437 16.5467 46.6104 16.6933 46.797 17.04C46.9837 17.36 47.077 17.8 47.077 18.36C47.077 19.2133 46.8504 20.1333 46.397 21.12C46.2104 21.52 46.0104 21.9067 45.797 22.28C45.6104 22.6267 45.4504 22.9067 45.317 23.12C44.9704 23.6267 44.7037 23.9733 44.517 24.16C44.357 24.32 44.277 24.48 44.277 24.64C44.277 25.0667 44.5437 25.48 45.077 25.88C45.6104 26.28 46.437 26.48 47.557 26.48C47.9837 26.48 48.4237 26.2933 48.877 25.92C49.3304 25.5467 49.7704 25.08 50.197 24.52C50.6504 23.96 51.0504 23.4 51.397 22.84C51.557 22.5733 51.7037 22.44 51.837 22.44C51.997 22.44 52.077 22.56 52.077 22.8C52.077 22.9067 52.0504 23.0133 51.997 23.12ZM45.997 18.08C45.8904 17.92 45.6637 17.96 45.317 18.2C44.997 18.4133 44.7037 18.92 44.437 19.72C44.2504 20.3067 44.157 20.9867 44.157 21.76C44.157 21.9733 44.157 22.1867 44.157 22.4C44.1837 22.6133 44.2104 22.8267 44.237 23.04C44.6904 22.2667 45.0104 21.6933 45.197 21.32C45.4104 20.92 45.5704 20.5067 45.677 20.08C45.7304 19.8667 45.8104 19.6 45.917 19.28C46.0504 18.96 46.117 18.68 46.117 18.44C46.117 18.28 46.077 18.16 45.997 18.08ZM64.7498 11.84C64.5632 11.84 64.3765 11.8133 64.1898 11.76C64.0298 11.68 63.8698 11.5867 63.7098 11.48C63.3632 11.32 63.1898 10.9733 63.1898 10.44C63.1898 10.2 63.2432 9.93333 63.3498 9.64C63.4832 9.34667 63.6832 9.06667 63.9498 8.8C64.1365 8.61333 64.3632 8.52 64.6298 8.52C64.8698 8.52 65.0965 8.61333 65.3098 8.8C65.4165 8.90667 65.4832 9.08 65.5098 9.32C65.5632 9.53333 65.5898 9.77333 65.5898 10.04C65.5898 10.36 65.5632 10.68 65.5098 11C65.4565 11.2933 65.3632 11.5067 65.2298 11.64C65.0432 11.7733 64.8832 11.84 64.7498 11.84ZM60.6698 27.56C59.6832 27.56 59.0032 27.3333 58.6298 26.88C58.2565 26.4267 58.0698 25.88 58.0698 25.24C58.0698 24.9467 58.0965 24.6533 58.1498 24.36C58.2032 24.0667 58.2698 23.7733 58.3498 23.48C58.0832 23.96 57.6698 24.52 57.1098 25.16C56.5498 25.7733 56.0298 26.2667 55.5498 26.64C55.4432 26.72 55.3365 26.76 55.2298 26.76C55.0698 26.76 54.9898 26.6667 54.9898 26.48C54.9898 26.2667 55.0698 26.08 55.2298 25.92C56.3498 24.7467 57.2032 23.8 57.7898 23.08C58.3765 22.3333 58.8298 21.7067 59.1498 21.2C59.4698 20.6933 59.7765 20.2267 60.0698 19.8C60.3098 19.0267 60.5232 18.28 60.7098 17.56C60.9232 16.8133 61.2432 16.0533 61.6698 15.28C61.8032 15.04 62.0698 14.92 62.4698 14.92C62.7365 14.92 62.9765 14.9867 63.1898 15.12C63.4032 15.2533 63.5098 15.48 63.5098 15.8C63.5098 15.96 63.4698 16.1467 63.3898 16.36C63.0965 17.1867 62.7765 17.8933 62.4298 18.48C62.1098 19.04 61.6832 19.76 61.1498 20.64C60.5898 21.5467 60.1365 22.4267 59.7898 23.28C59.4698 24.1333 59.3098 24.8533 59.3098 25.44C59.3098 25.8133 59.3898 26.12 59.5498 26.36C59.7365 26.6 60.0032 26.72 60.3498 26.72C61.0965 26.7467 61.6698 26.6267 62.0698 26.36C62.4698 26.0667 62.8032 25.7867 63.0698 25.52C63.4165 25.1467 63.7098 24.8 63.9498 24.48C64.2165 24.16 64.4565 23.88 64.6698 23.64C64.8298 23.48 64.9098 23.5067 64.9098 23.72C64.9098 23.8533 64.8698 24.0267 64.7898 24.24C64.7365 24.4533 64.6698 24.6133 64.5898 24.72C64.3232 25.0933 64.0032 25.5067 63.6298 25.96C63.2832 26.4133 62.8698 26.8 62.3898 27.12C61.9098 27.4133 61.3365 27.56 60.6698 27.56ZM72.8126 25.28C72.466 25.6267 72.1593 25.9733 71.8926 26.32C71.626 26.6667 71.0393 27.0667 70.1326 27.52C70.026 27.68 69.786 27.92 69.4126 28.24C69.066 28.56 68.3726 28.7467 67.3326 28.8C66.6393 28.8267 66.0793 28.6533 65.6526 28.28C65.2526 27.9333 64.946 27.5067 64.7326 27C64.5193 26.4933 64.3326 26.0267 64.1726 25.6C64.146 25.6267 64.026 25.7333 63.8126 25.92C63.5993 26.1067 63.386 26.2933 63.1726 26.48C62.9326 26.6667 62.786 26.7867 62.7326 26.84C62.706 26.8667 62.6526 26.88 62.5726 26.88C62.4393 26.88 62.3326 26.8133 62.2526 26.68C62.146 26.52 62.146 26.3867 62.2526 26.28C62.7593 25.7733 63.146 25.3867 63.4126 25.12C63.6793 24.8267 63.9193 24.5467 64.1326 24.28C64.346 24.0133 64.5993 23.68 64.8926 23.28C65.346 22.5867 65.826 21.9733 66.3326 21.44C66.866 20.88 67.1993 20.4667 67.3326 20.2C67.3593 20.1733 67.3726 20.12 67.3726 20.04C67.3726 19.96 67.3326 19.8933 67.2526 19.84C67.1993 19.7867 67.1593 19.72 67.1326 19.64C67.026 19.2133 66.9726 18.8133 66.9726 18.44C66.9726 17.8533 67.1993 17.16 67.6526 16.36C67.8393 16.2267 68.0926 16.12 68.4126 16.04C68.7326 15.9333 68.986 15.92 69.1726 16C69.386 16.1067 69.5193 16.2267 69.5726 16.36C69.6526 16.4933 69.7193 16.6667 69.7726 16.88C69.7726 16.9067 69.7726 16.9333 69.7726 16.96C69.7993 16.9867 69.8126 17.0267 69.8126 17.08C69.8126 17.24 69.786 17.4133 69.7326 17.6C69.6793 17.7867 69.6126 17.9867 69.5326 18.2C69.5326 18.3067 69.3993 18.5067 69.1326 18.8C68.8926 19.0933 68.8126 19.28 68.8926 19.36C69.0526 19.7067 69.3193 20.16 69.6926 20.72C70.146 21.36 70.4526 21.9467 70.6126 22.48C70.7993 23.0133 70.8926 23.4933 70.8926 23.92C70.8926 24.4267 70.8126 24.8667 70.6526 25.24C70.5193 25.6133 70.4126 25.9333 70.3326 26.2C70.5726 26.2267 70.8526 26.1067 71.1726 25.84C71.4926 25.5467 71.7993 25.2267 72.0926 24.88C72.4126 24.5067 72.6526 24.24 72.8126 24.08C72.9726 23.92 73.0926 23.84 73.1726 23.84C73.306 23.84 73.306 24.04 73.1726 24.44C73.066 24.84 72.946 25.12 72.8126 25.28ZM68.9326 17.6C68.9326 17.4933 68.9193 17.3733 68.8926 17.24C68.866 17.1067 68.786 17.0267 68.6526 17H68.6126C68.4793 17 68.3726 17.0667 68.2926 17.2C68.2126 17.3067 68.146 17.4133 68.0926 17.52C68.0126 17.7333 67.9326 17.92 67.8526 18.08C67.7993 18.2133 67.826 18.3467 67.9326 18.48C68.0393 18.5333 68.226 18.4267 68.4926 18.16C68.786 17.8667 68.9326 17.68 68.9326 17.6ZM69.0126 24C69.0126 23.6 68.9326 23.1733 68.7726 22.72C68.6393 22.24 68.4793 21.8133 68.2926 21.44C68.1326 21.0667 68.0126 20.8267 67.9326 20.72C67.9326 20.72 67.7726 20.92 67.4526 21.32C67.1326 21.6933 66.786 22.1067 66.4126 22.56C66.1726 22.8267 65.9326 23.1733 65.6926 23.6C65.4526 24.0267 65.306 24.4 65.2526 24.72C65.2526 24.72 65.3726 24.88 65.6126 25.2C65.8526 25.4933 66.146 25.7733 66.4926 26.04C66.866 26.3067 67.226 26.4 67.5726 26.32C68.106 26.1867 68.4793 25.88 68.6926 25.4C68.906 24.8933 69.0126 24.4267 69.0126 24ZM67.6526 27.12H67.2926C67.186 27.12 67.066 27.12 66.9326 27.12C66.7993 27.0933 66.666 27.0667 66.5326 27.04C66.3993 26.9867 66.1993 26.88 65.9326 26.72C65.666 26.56 65.5326 26.48 65.5326 26.48C65.5326 26.48 65.5193 26.5067 65.4926 26.56C65.4926 26.6133 65.4926 26.68 65.4926 26.76C65.4926 26.8667 65.506 26.9867 65.5326 27.12C65.586 27.2533 65.6793 27.3867 65.8126 27.52C66.026 27.68 66.2126 27.8133 66.3726 27.92C66.5326 28 66.746 28 67.0126 27.92C67.1993 27.8667 67.346 27.72 67.4526 27.48C67.586 27.24 67.6526 27.12 67.6526 27.12ZM90.6564 3.28C90.7097 3.44 90.7364 3.61333 90.7364 3.8C90.7364 4.36 90.6031 5.13333 90.3364 6.12C90.0964 7.10666 89.8031 8.12 89.4564 9.16C89.1097 10.1733 88.8031 11.0533 88.5364 11.8C87.7097 14.0667 86.9231 15.9067 86.1764 17.32C85.4564 18.7333 84.8164 19.84 84.2564 20.64C83.6964 21.4133 83.2564 21.9867 82.9364 22.36C82.6164 22.7333 82.4564 23.0133 82.4564 23.2C82.6431 23.6 82.8031 24.1867 82.9364 24.96C83.0697 25.7067 83.1497 26.36 83.1764 26.92C83.3897 26.9733 83.6564 27 83.9764 27C84.2431 27 84.5231 26.9733 84.8164 26.92C85.1097 26.8667 85.3897 26.7867 85.6564 26.68C86.5097 26.3067 87.2164 25.7867 87.7764 25.12C88.3364 24.4267 88.7364 23.9067 88.9764 23.56C89.0831 23.4267 89.1897 23.36 89.2964 23.36C89.4297 23.36 89.5231 23.44 89.5764 23.6C89.6297 23.7333 89.6164 23.8667 89.5364 24C89.0031 24.8267 88.4564 25.5333 87.8964 26.12C87.3364 26.7067 86.6964 27.16 85.9764 27.48C85.2297 27.8 84.6031 27.9867 84.0964 28.04C83.5897 28.0933 83.3364 28.12 83.3364 28.12C83.2831 28.3333 83.2297 28.5467 83.1764 28.76C83.1497 29 83.0964 29.3467 83.0164 29.8C82.9364 30.2533 82.8164 30.9333 82.6564 31.84C82.3097 33.6533 81.8831 35.3067 81.3764 36.8C80.8697 38.2933 79.9897 39.5733 78.7364 40.64C78.5764 40.7467 78.4297 40.8 78.2964 40.8C78.0297 40.8 77.7497 40.6933 77.4564 40.48C77.1631 40.2933 76.9764 40.0533 76.8964 39.76C76.8164 39.4667 76.7497 39.04 76.6964 38.48C76.6431 37.9467 76.6031 37.4 76.5764 36.84C76.5497 36.28 76.5364 35.84 76.5364 35.52C76.5364 34.3733 76.7231 32.8533 77.0964 30.96C77.4697 29.0933 77.9897 27.0133 78.6564 24.72C79.3231 22.4 80.1231 20.0267 81.0564 17.6C81.9897 15.1467 83.0164 12.8 84.1364 10.56C84.5364 9.76 84.9897 8.90667 85.4964 8C86.0297 7.09333 86.5631 6.24 87.0964 5.44C87.6564 4.61333 88.1897 3.94667 88.6964 3.44C89.2031 2.93333 89.6297 2.68 89.9764 2.68C90.2964 2.68 90.5231 2.88 90.6564 3.28ZM89.1764 5.28C88.8564 5.46667 88.5097 5.90667 88.1364 6.6C87.7897 7.26666 87.4431 8.01333 87.0964 8.84C86.7497 9.64 86.4164 10.36 86.0964 11C85.3764 12.4667 84.6431 14.0667 83.8964 15.8C83.1764 17.5067 82.4697 19.4933 81.7764 21.76C82.0697 21.4667 82.4697 20.96 82.9764 20.24C83.4831 19.52 84.0164 18.6667 84.5764 17.68C85.1364 16.6667 85.6831 15.6267 86.2164 14.56C86.7764 13.4933 87.2431 12.48 87.6164 11.52C87.9364 10.7733 88.2297 10 88.4964 9.2C88.7631 8.37333 88.9764 7.62667 89.1364 6.96C89.2964 6.29333 89.3764 5.81333 89.3764 5.52C89.3764 5.28 89.3097 5.2 89.1764 5.28ZM81.8564 25C81.8031 24.7867 81.7231 24.5733 81.6164 24.36C81.5364 24.12 81.3897 24.0267 81.1764 24.08C81.0164 24.2667 80.8831 24.48 80.7764 24.72C80.6964 24.96 80.6564 25.3067 80.6564 25.76C80.6564 25.76 80.7364 25.84 80.8964 26C81.0831 26.1333 81.3097 26.16 81.5764 26.08C81.6564 26.0267 81.7364 25.9733 81.8164 25.92C81.8964 25.8667 81.9364 25.7467 81.9364 25.56C81.9364 25.48 81.9364 25.4 81.9364 25.32C81.9364 25.2133 81.9097 25.1067 81.8564 25ZM82.0164 27.8C82.0164 27.8 81.9631 27.8133 81.8564 27.84C81.7497 27.8667 81.6164 27.88 81.4564 27.88C81.2431 27.88 81.0031 27.8267 80.7364 27.72C80.4697 27.5867 80.2831 27.3467 80.1764 27C79.9631 27.8533 79.8031 28.48 79.6964 28.88C79.5897 29.28 79.5097 29.5733 79.4564 29.76C79.4031 29.9467 79.3497 30.1467 79.2964 30.36C79.2697 30.5733 79.2164 30.9333 79.1364 31.44C79.0564 31.9467 78.9231 32.72 78.7364 33.76C78.6297 34.2933 78.5364 34.8933 78.4564 35.56C78.3764 36.2533 78.3364 36.8667 78.3364 37.4C78.3364 37.8 78.3631 38.12 78.4164 38.36C78.4964 38.6 78.6031 38.7067 78.7364 38.68C78.8964 38.6533 79.0564 38.48 79.2164 38.16C79.4031 37.8667 79.5897 37.52 79.7764 37.12C79.9631 36.7467 80.1364 36.44 80.2964 36.2C80.5364 35.8267 80.7097 35.4667 80.8164 35.12C80.9497 34.7733 81.0697 34.28 81.1764 33.64C81.3097 33.0267 81.4964 32.1467 81.7364 31C81.8164 30.6267 81.8697 30.1867 81.8964 29.68C81.9497 29.2 81.9764 28.76 81.9764 28.36C82.0031 27.9867 82.0164 27.8 82.0164 27.8ZM101.389 24.88C101.469 24.8 101.575 24.76 101.709 24.76C101.895 24.76 101.989 24.8533 101.989 25.04C101.989 25.1467 101.922 25.3067 101.789 25.52C101.682 25.7333 101.442 25.9867 101.069 26.28C100.695 26.6 100.309 26.8933 99.9086 27.16C99.5353 27.4267 99.0153 27.56 98.3486 27.56C97.6286 27.56 97.0553 27.4267 96.6286 27.16C96.2286 26.8933 95.9353 26.6 95.7486 26.28C95.5886 25.9333 95.4819 25.6667 95.4286 25.48C95.1086 25.72 94.7753 26.04 94.4286 26.44C94.1086 26.8133 93.6419 27.16 93.0286 27.48C92.4153 27.7733 91.5353 27.92 90.3886 27.92C89.7486 27.92 89.1619 27.7733 88.6286 27.48C88.1219 27.16 87.8686 26.48 87.8686 25.44C87.8686 25.1467 87.8819 24.84 87.9086 24.52C87.9619 24.1733 88.0419 23.8 88.1486 23.4C88.4686 22.1467 88.8419 21.16 89.2686 20.44C89.6953 19.72 90.3353 19.1867 91.1886 18.84C91.7219 18.6267 92.3753 18.4267 93.1486 18.24C93.9219 18.0533 94.6019 17.8933 95.1886 17.76C95.3753 17.7067 95.5353 17.5333 95.6686 17.24C95.8286 16.92 96.0019 16.6267 96.1886 16.36C96.2953 16.2267 96.4153 16.12 96.5486 16.04C96.6819 15.9333 96.8286 15.88 96.9886 15.88C97.1219 15.88 97.2953 15.9467 97.5086 16.08C97.6953 16.2133 97.8153 16.4667 97.8686 16.84C97.9486 17.2133 97.9886 17.56 97.9886 17.88C97.9619 18.04 97.8953 18.24 97.7886 18.48C97.7086 18.6933 97.6419 18.9333 97.5886 19.2C97.5353 19.5467 97.4019 20.04 97.1886 20.68C96.9753 21.32 96.8686 21.8533 96.8686 22.28C96.8686 22.6533 96.8419 23.12 96.7886 23.68C96.7353 24.2133 96.7353 24.5867 96.7886 24.8C97.0819 25.44 97.4953 25.8667 98.0286 26.08C98.5619 26.2667 99.0286 26.32 99.4286 26.24C99.7219 26.1867 100.055 26.0133 100.429 25.72C100.802 25.4267 101.122 25.1467 101.389 24.88ZM94.9086 20.32C94.8553 20.1067 94.7219 19.88 94.5086 19.64C94.3219 19.4 94.0819 19.28 93.7886 19.28C93.7353 19.28 93.6286 19.3067 93.4686 19.36C93.0153 19.52 92.5353 19.8267 92.0286 20.28C91.5219 20.7067 91.0819 21.2667 90.7086 21.96C90.3353 22.6533 90.1219 23.4667 90.0686 24.4C90.0686 24.6667 90.1486 25.0133 90.3086 25.44C90.4953 25.8667 90.7353 26.2267 91.0286 26.52C91.3219 26.8133 91.6153 26.8933 91.9086 26.76C92.5486 26.4933 93.0819 26.12 93.5086 25.64C93.9619 25.1333 94.3353 24.52 94.6286 23.8C94.7619 23.4533 94.8553 23.0933 94.9086 22.72C94.9886 22.32 95.0286 21.9467 95.0286 21.6C95.0286 21.28 95.0153 21.0133 94.9886 20.8C94.9619 20.56 94.9353 20.4 94.9086 20.32ZM109.187 20.72C109.187 21.3333 109.134 21.7867 109.027 22.08C108.947 22.3733 108.827 22.6133 108.667 22.8C108.534 22.9867 108.387 23.2 108.227 23.44C108.067 23.68 107.934 24.04 107.827 24.52C107.747 24.9733 107.707 25.64 107.707 26.52C107.707 26.8667 107.84 27.1467 108.107 27.36C108.374 27.5733 108.68 27.68 109.027 27.68C109.187 27.68 109.267 27.7333 109.267 27.84C109.267 27.9733 109.16 28.1333 108.947 28.32C108.76 28.5333 108.587 28.64 108.427 28.64C107.84 28.64 107.414 28.4133 107.147 27.96C106.88 27.48 106.747 26.9733 106.747 26.44C106.747 25.56 106.774 24.8667 106.827 24.36C106.88 23.8267 106.934 23.3333 106.987 22.88C107.04 22.4 107.054 21.8133 107.027 21.12C107 20.64 106.934 20.2667 106.827 20C106.72 19.7067 106.44 19.56 105.987 19.56C105.747 19.56 105.574 19.6 105.467 19.68C105.387 19.76 105.28 19.8933 105.147 20.08C104.854 20.5067 104.6 21.1067 104.387 21.88C104.2 22.6267 104.04 23.4267 103.907 24.28C103.8 25.1067 103.694 25.8533 103.587 26.52C103.507 27.16 103.427 27.5867 103.347 27.8C103.267 27.9867 103.16 28.12 103.027 28.2C102.92 28.28 102.8 28.32 102.667 28.32C102.56 28.32 102.454 28.2933 102.347 28.24C102.267 28.2133 102.2 28.1867 102.147 28.16C102.014 28.08 101.947 27.9467 101.947 27.76C101.947 27.5733 101.987 27.36 102.067 27.12C102.174 26.8533 102.254 26.6133 102.307 26.4C102.36 26.1867 102.44 25.8133 102.547 25.28C102.68 24.72 102.814 24.1467 102.947 23.56C103.08 22.9467 103.187 22.4267 103.267 22C103.374 21.5467 103.427 21.32 103.427 21.32C103.294 21.32 103.16 21.3333 103.027 21.36C102.894 21.36 102.76 21.36 102.627 21.36C102.227 21.36 102.027 21.2 102.027 20.88C102.027 20.6667 102.107 20.3467 102.267 19.92C102.427 19.4933 102.72 18.9333 103.147 18.24C103.28 18.0267 103.547 17.76 103.947 17.44C104.347 17.12 104.68 16.9867 104.947 17.04C105.054 16.9867 105.147 16.96 105.227 16.96C105.307 16.96 105.374 16.96 105.427 16.96C105.72 16.96 105.88 17.0667 105.907 17.28C105.96 17.4667 105.974 17.6667 105.947 17.88C105.92 18.0667 105.934 18.1467 105.987 18.12C106.36 17.96 106.734 17.88 107.107 17.88C107.667 17.88 108.147 18.1067 108.547 18.56C108.974 18.9867 109.187 19.7067 109.187 20.72ZM122.774 12.2C122.774 12.2 122.774 12.2933 122.774 12.48C122.801 12.6667 122.747 12.8933 122.614 13.16C122.481 13.4267 122.187 13.6933 121.734 13.96C121.574 14.0667 121.281 14.1467 120.854 14.2C120.427 14.2533 119.947 14.2933 119.414 14.32C119.121 15.0933 118.801 15.88 118.454 16.68C118.107 17.4533 117.747 18.1867 117.374 18.88C116.814 19.9467 116.334 20.7333 115.934 21.24C115.561 21.7467 115.267 22.1333 115.054 22.4C114.841 22.64 114.694 22.9333 114.614 23.28C114.587 23.44 114.561 23.5867 114.534 23.72C114.534 23.8533 114.534 23.9867 114.534 24.12C114.534 25.1067 114.814 25.8267 115.374 26.28C115.961 26.7333 116.521 26.96 117.054 26.96C117.667 26.96 118.281 26.7467 118.894 26.32C119.507 25.8667 120.014 25.4533 120.414 25.08C120.734 24.8133 120.974 24.68 121.134 24.68C121.241 24.68 121.294 24.7333 121.294 24.84C121.294 25.0267 121.147 25.32 120.854 25.72C120.694 25.9333 120.427 26.2267 120.054 26.6C119.681 26.9733 119.214 27.32 118.654 27.64C118.094 27.9333 117.467 28.08 116.774 28.08C115.387 28.08 114.454 27.76 113.974 27.12C113.521 26.48 113.294 25.4133 113.294 23.92C113.294 22.7467 113.414 21.3067 113.654 19.6C113.894 17.8667 114.267 16.04 114.774 14.12C114.641 14.12 114.507 14.12 114.374 14.12C114.241 14.0933 114.121 14.08 114.014 14.08C113.667 14.08 113.401 14.1333 113.214 14.24C113.054 14.32 112.921 14.36 112.814 14.36C112.547 14.36 112.414 14.16 112.414 13.76C112.414 13.3067 112.534 12.96 112.774 12.72C112.961 12.5333 113.281 12.44 113.734 12.44C114.081 12.44 114.547 12.5067 115.134 12.64C115.187 12.48 115.241 12.3333 115.294 12.2C115.347 12.0667 115.387 11.9333 115.414 11.8C115.467 11.5333 115.521 11.32 115.574 11.16C115.627 11 115.694 10.8 115.774 10.56C116.227 9.2 116.721 7.89333 117.254 6.64C117.787 5.38667 118.561 4.26667 119.574 3.28C119.761 2.98667 120.014 2.84 120.334 2.84C120.574 2.84 120.787 2.94667 120.974 3.16C121.161 3.34667 121.241 3.57333 121.214 3.84C121.214 3.84 121.201 4.17333 121.174 4.84C121.147 5.50667 121.094 6.32 121.014 7.28C120.934 8.21333 120.814 9.10667 120.654 9.96C120.574 10.4667 120.454 11.0133 120.294 11.6C120.161 12.16 119.987 12.7333 119.774 13.32C119.934 13.3467 120.081 13.3733 120.214 13.4C120.374 13.4 120.521 13.4 120.654 13.4C121.054 13.4 121.361 13.3467 121.574 13.24C121.814 13.1067 121.947 12.9733 121.974 12.84C122.027 12.7067 122.054 12.64 122.054 12.64C122.054 12.1067 122.187 11.84 122.454 11.84C122.587 11.84 122.694 11.96 122.774 12.2ZM119.934 5.52C119.774 5.49333 119.521 5.8 119.174 6.44C118.827 7.08 118.454 7.92 118.054 8.96C117.654 10 117.267 11.1067 116.894 12.28C116.867 12.3867 116.841 12.4933 116.814 12.6C116.787 12.68 116.761 12.7733 116.734 12.88C116.921 12.9333 117.107 12.9733 117.294 13C117.481 13.0267 117.681 13.0667 117.894 13.12C118.001 13.1467 118.121 13.16 118.254 13.16C118.387 13.16 118.507 13.1867 118.614 13.24C118.721 12.9467 118.814 12.6933 118.894 12.48C118.974 12.24 119.054 12.0267 119.134 11.84C119.427 10.8533 119.667 9.84 119.854 8.8C120.041 7.76 120.134 6.94667 120.134 6.36C120.134 5.88 120.067 5.6 119.934 5.52ZM118.174 14.32H117.454C117.267 14.32 117.081 14.32 116.894 14.32C116.734 14.32 116.574 14.3067 116.414 14.28C116.174 15.2933 115.934 16.3867 115.694 17.56C115.481 18.7067 115.307 19.7333 115.174 20.64C115.494 20.2667 115.827 19.7333 116.174 19.04C116.521 18.3467 116.867 17.5867 117.214 16.76C117.561 15.9067 117.881 15.0933 118.174 14.32ZM133.928 24.88C134.008 24.8 134.114 24.76 134.248 24.76C134.434 24.76 134.528 24.8533 134.528 25.04C134.528 25.1467 134.461 25.3067 134.328 25.52C134.221 25.7333 133.981 25.9867 133.608 26.28C133.234 26.6 132.848 26.8933 132.448 27.16C132.074 27.4267 131.554 27.56 130.888 27.56C130.168 27.56 129.594 27.4267 129.168 27.16C128.768 26.8933 128.474 26.6 128.288 26.28C128.128 25.9333 128.021 25.6667 127.968 25.48C127.648 25.72 127.314 26.04 126.968 26.44C126.648 26.8133 126.181 27.16 125.568 27.48C124.954 27.7733 124.074 27.92 122.928 27.92C122.288 27.92 121.701 27.7733 121.168 27.48C120.661 27.16 120.408 26.48 120.408 25.44C120.408 25.1467 120.421 24.84 120.448 24.52C120.501 24.1733 120.581 23.8 120.688 23.4C121.008 22.1467 121.381 21.16 121.808 20.44C122.234 19.72 122.874 19.1867 123.728 18.84C124.261 18.6267 124.914 18.4267 125.688 18.24C126.461 18.0533 127.141 17.8933 127.728 17.76C127.914 17.7067 128.074 17.5333 128.208 17.24C128.368 16.92 128.541 16.6267 128.728 16.36C128.834 16.2267 128.954 16.12 129.088 16.04C129.221 15.9333 129.368 15.88 129.528 15.88C129.661 15.88 129.834 15.9467 130.048 16.08C130.234 16.2133 130.354 16.4667 130.408 16.84C130.488 17.2133 130.528 17.56 130.528 17.88C130.501 18.04 130.434 18.24 130.328 18.48C130.248 18.6933 130.181 18.9333 130.128 19.2C130.074 19.5467 129.941 20.04 129.728 20.68C129.514 21.32 129.408 21.8533 129.408 22.28C129.408 22.6533 129.381 23.12 129.328 23.68C129.274 24.2133 129.274 24.5867 129.328 24.8C129.621 25.44 130.034 25.8667 130.568 26.08C131.101 26.2667 131.568 26.32 131.968 26.24C132.261 26.1867 132.594 26.0133 132.968 25.72C133.341 25.4267 133.661 25.1467 133.928 24.88ZM127.448 20.32C127.394 20.1067 127.261 19.88 127.048 19.64C126.861 19.4 126.621 19.28 126.328 19.28C126.274 19.28 126.168 19.3067 126.008 19.36C125.554 19.52 125.074 19.8267 124.568 20.28C124.061 20.7067 123.621 21.2667 123.248 21.96C122.874 22.6533 122.661 23.4667 122.608 24.4C122.608 24.6667 122.688 25.0133 122.848 25.44C123.034 25.8667 123.274 26.2267 123.568 26.52C123.861 26.8133 124.154 26.8933 124.448 26.76C125.088 26.4933 125.621 26.12 126.048 25.64C126.501 25.1333 126.874 24.52 127.168 23.8C127.301 23.4533 127.394 23.0933 127.448 22.72C127.528 22.32 127.568 21.9467 127.568 21.6C127.568 21.28 127.554 21.0133 127.528 20.8C127.501 20.56 127.474 20.4 127.448 20.32ZM143.086 25.28C142.739 25.6267 142.433 25.9733 142.166 26.32C141.899 26.6667 141.313 27.0667 140.406 27.52C140.299 27.68 140.059 27.92 139.686 28.24C139.339 28.56 138.646 28.7467 137.606 28.8C136.913 28.8267 136.353 28.6533 135.926 28.28C135.526 27.9333 135.219 27.5067 135.006 27C134.793 26.4933 134.606 26.0267 134.446 25.6C134.419 25.6267 134.299 25.7333 134.086 25.92C133.873 26.1067 133.659 26.2933 133.446 26.48C133.206 26.6667 133.059 26.7867 133.006 26.84C132.979 26.8667 132.926 26.88 132.846 26.88C132.713 26.88 132.606 26.8133 132.526 26.68C132.419 26.52 132.419 26.3867 132.526 26.28C133.033 25.7733 133.419 25.3867 133.686 25.12C133.953 24.8267 134.193 24.5467 134.406 24.28C134.619 24.0133 134.873 23.68 135.166 23.28C135.619 22.5867 136.099 21.9733 136.606 21.44C137.139 20.88 137.473 20.4667 137.606 20.2C137.633 20.1733 137.646 20.12 137.646 20.04C137.646 19.96 137.606 19.8933 137.526 19.84C137.473 19.7867 137.433 19.72 137.406 19.64C137.299 19.2133 137.246 18.8133 137.246 18.44C137.246 17.8533 137.473 17.16 137.926 16.36C138.113 16.2267 138.366 16.12 138.686 16.04C139.006 15.9333 139.259 15.92 139.446 16C139.659 16.1067 139.793 16.2267 139.846 16.36C139.926 16.4933 139.993 16.6667 140.046 16.88C140.046 16.9067 140.046 16.9333 140.046 16.96C140.073 16.9867 140.086 17.0267 140.086 17.08C140.086 17.24 140.059 17.4133 140.006 17.6C139.953 17.7867 139.886 17.9867 139.806 18.2C139.806 18.3067 139.673 18.5067 139.406 18.8C139.166 19.0933 139.086 19.28 139.166 19.36C139.326 19.7067 139.593 20.16 139.966 20.72C140.419 21.36 140.726 21.9467 140.886 22.48C141.073 23.0133 141.166 23.4933 141.166 23.92C141.166 24.4267 141.086 24.8667 140.926 25.24C140.793 25.6133 140.686 25.9333 140.606 26.2C140.846 26.2267 141.126 26.1067 141.446 25.84C141.766 25.5467 142.073 25.2267 142.366 24.88C142.686 24.5067 142.926 24.24 143.086 24.08C143.246 23.92 143.366 23.84 143.446 23.84C143.579 23.84 143.579 24.04 143.446 24.44C143.339 24.84 143.219 25.12 143.086 25.28ZM139.206 17.6C139.206 17.4933 139.193 17.3733 139.166 17.24C139.139 17.1067 139.059 17.0267 138.926 17H138.886C138.753 17 138.646 17.0667 138.566 17.2C138.486 17.3067 138.419 17.4133 138.366 17.52C138.286 17.7333 138.206 17.92 138.126 18.08C138.073 18.2133 138.099 18.3467 138.206 18.48C138.313 18.5333 138.499 18.4267 138.766 18.16C139.059 17.8667 139.206 17.68 139.206 17.6ZM139.286 24C139.286 23.6 139.206 23.1733 139.046 22.72C138.913 22.24 138.753 21.8133 138.566 21.44C138.406 21.0667 138.286 20.8267 138.206 20.72C138.206 20.72 138.046 20.92 137.726 21.32C137.406 21.6933 137.059 22.1067 136.686 22.56C136.446 22.8267 136.206 23.1733 135.966 23.6C135.726 24.0267 135.579 24.4 135.526 24.72C135.526 24.72 135.646 24.88 135.886 25.2C136.126 25.4933 136.419 25.7733 136.766 26.04C137.139 26.3067 137.499 26.4 137.846 26.32C138.379 26.1867 138.753 25.88 138.966 25.4C139.179 24.8933 139.286 24.4267 139.286 24ZM137.926 27.12H137.566C137.459 27.12 137.339 27.12 137.206 27.12C137.073 27.0933 136.939 27.0667 136.806 27.04C136.673 26.9867 136.473 26.88 136.206 26.72C135.939 26.56 135.806 26.48 135.806 26.48C135.806 26.48 135.793 26.5067 135.766 26.56C135.766 26.6133 135.766 26.68 135.766 26.76C135.766 26.8667 135.779 26.9867 135.806 27.12C135.859 27.2533 135.953 27.3867 136.086 27.52C136.299 27.68 136.486 27.8133 136.646 27.92C136.806 28 137.019 28 137.286 27.92C137.473 27.8667 137.619 27.72 137.726 27.48C137.859 27.24 137.926 27.12 137.926 27.12ZM153.243 12.2C153.243 12.2 153.243 12.2933 153.243 12.48C153.269 12.6667 153.216 12.8933 153.083 13.16C152.949 13.4267 152.656 13.6933 152.203 13.96C152.043 14.0667 151.749 14.1467 151.323 14.2C150.896 14.2533 150.416 14.2933 149.883 14.32C149.589 15.0933 149.269 15.88 148.923 16.68C148.576 17.4533 148.216 18.1867 147.843 18.88C147.283 19.9467 146.803 20.7333 146.403 21.24C146.029 21.7467 145.736 22.1333 145.523 22.4C145.309 22.64 145.163 22.9333 145.083 23.28C145.056 23.44 145.029 23.5867 145.003 23.72C145.003 23.8533 145.003 23.9867 145.003 24.12C145.003 25.1067 145.283 25.8267 145.843 26.28C146.429 26.7333 146.989 26.96 147.523 26.96C148.136 26.96 148.749 26.7467 149.363 26.32C149.976 25.8667 150.483 25.4533 150.883 25.08C151.203 24.8133 151.443 24.68 151.603 24.68C151.709 24.68 151.763 24.7333 151.763 24.84C151.763 25.0267 151.616 25.32 151.323 25.72C151.163 25.9333 150.896 26.2267 150.523 26.6C150.149 26.9733 149.683 27.32 149.123 27.64C148.563 27.9333 147.936 28.08 147.243 28.08C145.856 28.08 144.923 27.76 144.443 27.12C143.989 26.48 143.763 25.4133 143.763 23.92C143.763 22.7467 143.883 21.3067 144.123 19.6C144.363 17.8667 144.736 16.04 145.243 14.12C145.109 14.12 144.976 14.12 144.843 14.12C144.709 14.0933 144.589 14.08 144.483 14.08C144.136 14.08 143.869 14.1333 143.683 14.24C143.523 14.32 143.389 14.36 143.283 14.36C143.016 14.36 142.883 14.16 142.883 13.76C142.883 13.3067 143.003 12.96 143.243 12.72C143.429 12.5333 143.749 12.44 144.203 12.44C144.549 12.44 145.016 12.5067 145.603 12.64C145.656 12.48 145.709 12.3333 145.763 12.2C145.816 12.0667 145.856 11.9333 145.883 11.8C145.936 11.5333 145.989 11.32 146.043 11.16C146.096 11 146.163 10.8 146.243 10.56C146.696 9.2 147.189 7.89333 147.723 6.64C148.256 5.38667 149.029 4.26667 150.043 3.28C150.229 2.98667 150.483 2.84 150.803 2.84C151.043 2.84 151.256 2.94667 151.443 3.16C151.629 3.34667 151.709 3.57333 151.683 3.84C151.683 3.84 151.669 4.17333 151.643 4.84C151.616 5.50667 151.563 6.32 151.483 7.28C151.403 8.21333 151.283 9.10667 151.123 9.96C151.043 10.4667 150.923 11.0133 150.763 11.6C150.629 12.16 150.456 12.7333 150.243 13.32C150.403 13.3467 150.549 13.3733 150.683 13.4C150.843 13.4 150.989 13.4 151.123 13.4C151.523 13.4 151.829 13.3467 152.043 13.24C152.283 13.1067 152.416 12.9733 152.443 12.84C152.496 12.7067 152.523 12.64 152.523 12.64C152.523 12.1067 152.656 11.84 152.923 11.84C153.056 11.84 153.163 11.96 153.243 12.2ZM150.403 5.52C150.243 5.49333 149.989 5.8 149.643 6.44C149.296 7.08 148.923 7.92 148.523 8.96C148.123 10 147.736 11.1067 147.363 12.28C147.336 12.3867 147.309 12.4933 147.283 12.6C147.256 12.68 147.229 12.7733 147.203 12.88C147.389 12.9333 147.576 12.9733 147.763 13C147.949 13.0267 148.149 13.0667 148.363 13.12C148.469 13.1467 148.589 13.16 148.723 13.16C148.856 13.16 148.976 13.1867 149.083 13.24C149.189 12.9467 149.283 12.6933 149.363 12.48C149.443 12.24 149.523 12.0267 149.603 11.84C149.896 10.8533 150.136 9.84 150.323 8.8C150.509 7.76 150.603 6.94667 150.603 6.36C150.603 5.88 150.536 5.6 150.403 5.52ZM148.643 14.32H147.923C147.736 14.32 147.549 14.32 147.363 14.32C147.203 14.32 147.043 14.3067 146.883 14.28C146.643 15.2933 146.403 16.3867 146.163 17.56C145.949 18.7067 145.776 19.7333 145.643 20.64C145.963 20.2667 146.296 19.7333 146.643 19.04C146.989 18.3467 147.336 17.5867 147.683 16.76C148.029 15.9067 148.349 15.0933 148.643 14.32ZM159.476 11.84C159.29 11.84 159.103 11.8133 158.916 11.76C158.756 11.68 158.596 11.5867 158.436 11.48C158.09 11.32 157.916 10.9733 157.916 10.44C157.916 10.2 157.97 9.93333 158.076 9.64C158.21 9.34667 158.41 9.06667 158.676 8.8C158.863 8.61333 159.09 8.52 159.356 8.52C159.596 8.52 159.823 8.61333 160.036 8.8C160.143 8.90667 160.21 9.08 160.236 9.32C160.29 9.53333 160.316 9.77333 160.316 10.04C160.316 10.36 160.29 10.68 160.236 11C160.183 11.2933 160.09 11.5067 159.956 11.64C159.77 11.7733 159.61 11.84 159.476 11.84ZM155.396 27.56C154.41 27.56 153.73 27.3333 153.356 26.88C152.983 26.4267 152.796 25.88 152.796 25.24C152.796 24.9467 152.823 24.6533 152.876 24.36C152.93 24.0667 152.996 23.7733 153.076 23.48C152.81 23.96 152.396 24.52 151.836 25.16C151.276 25.7733 150.756 26.2667 150.276 26.64C150.17 26.72 150.063 26.76 149.956 26.76C149.796 26.76 149.716 26.6667 149.716 26.48C149.716 26.2667 149.796 26.08 149.956 25.92C151.076 24.7467 151.93 23.8 152.516 23.08C153.103 22.3333 153.556 21.7067 153.876 21.2C154.196 20.6933 154.503 20.2267 154.796 19.8C155.036 19.0267 155.25 18.28 155.436 17.56C155.65 16.8133 155.97 16.0533 156.396 15.28C156.53 15.04 156.796 14.92 157.196 14.92C157.463 14.92 157.703 14.9867 157.916 15.12C158.13 15.2533 158.236 15.48 158.236 15.8C158.236 15.96 158.196 16.1467 158.116 16.36C157.823 17.1867 157.503 17.8933 157.156 18.48C156.836 19.04 156.41 19.76 155.876 20.64C155.316 21.5467 154.863 22.4267 154.516 23.28C154.196 24.1333 154.036 24.8533 154.036 25.44C154.036 25.8133 154.116 26.12 154.276 26.36C154.463 26.6 154.73 26.72 155.076 26.72C155.823 26.7467 156.396 26.6267 156.796 26.36C157.196 26.0667 157.53 25.7867 157.796 25.52C158.143 25.1467 158.436 24.8 158.676 24.48C158.943 24.16 159.183 23.88 159.396 23.64C159.556 23.48 159.636 23.5067 159.636 23.72C159.636 23.8533 159.596 24.0267 159.516 24.24C159.463 24.4533 159.396 24.6133 159.316 24.72C159.05 25.0933 158.73 25.5067 158.356 25.96C158.01 26.4133 157.596 26.8 157.116 27.12C156.636 27.4133 156.063 27.56 155.396 27.56ZM166.299 25.36C165.633 26.2133 165.006 26.8133 164.419 27.16C163.833 27.5067 163.273 27.72 162.739 27.8C162.206 27.8533 161.646 27.88 161.059 27.88C160.153 27.88 159.446 27.5867 158.939 27C158.459 26.3867 158.193 25.68 158.139 24.88C158.113 24.3467 158.139 23.7067 158.219 22.96C158.326 22.2133 158.593 21.4 159.019 20.52C159.419 19.6933 159.846 19.0933 160.299 18.72C160.753 18.32 161.193 18.04 161.619 17.88C162.046 17.72 162.393 17.5867 162.659 17.48C162.873 17.4 163.099 17.36 163.339 17.36C163.873 17.36 164.299 17.4933 164.619 17.76C164.753 17.8667 164.833 18.0133 164.859 18.2C164.913 18.36 164.939 18.5333 164.939 18.72C164.939 18.8267 164.926 18.9467 164.899 19.08C164.899 19.1867 164.886 19.2933 164.859 19.4C164.806 19.7467 164.646 20.2 164.379 20.76C164.139 21.2933 163.913 21.8133 163.699 22.32C163.539 22.48 163.366 22.56 163.179 22.56C162.966 22.56 162.913 22.44 163.019 22.2C163.153 21.6667 163.326 21.2267 163.539 20.88C163.779 20.5067 163.899 20.1867 163.899 19.92C163.926 19.84 163.939 19.76 163.939 19.68C163.939 19.6 163.939 19.5333 163.939 19.48C163.939 19.1067 163.779 18.8533 163.459 18.72C163.299 18.6667 163.179 18.64 163.099 18.64C162.753 18.64 162.353 18.8 161.899 19.12C161.446 19.44 161.073 19.88 160.779 20.44C160.433 21.0533 160.179 21.7467 160.019 22.52C159.886 23.2933 159.819 23.9467 159.819 24.48C159.819 25.12 160.046 25.6533 160.499 26.08C160.979 26.48 161.553 26.6533 162.219 26.6C162.966 26.52 163.686 26.32 164.379 26C165.099 25.68 165.713 25.1867 166.219 24.52C166.299 24.4667 166.379 24.44 166.459 24.44C166.539 24.44 166.579 24.4933 166.579 24.6C166.579 24.7067 166.539 24.8533 166.459 25.04C166.406 25.2 166.353 25.3067 166.299 25.36Z" fill="black"/>
</svg>
